<svg width="264" height="104" viewBox="0 0 264 104" fill="none" xmlns="http://www.w3.org/2000/svg">
<rect width="264" height="104" rx="12" fill="#F2F2F2" fill-opacity="0.5"/>
<path d="M108.456 87L107.588 84.928H102.8L101.932 87H99.986L104.284 77.2H106.23L110.472 87H108.456ZM103.472 83.318H106.916L105.208 79.202L103.472 83.318ZM116.39 81.876C115.886 81.3253 115.232 81.05 114.43 81.05C113.823 81.05 113.328 81.2553 112.946 81.666C112.572 82.0767 112.386 82.6087 112.386 83.262C112.386 83.934 112.572 84.4753 112.946 84.886C113.328 85.2967 113.823 85.502 114.43 85.502C115.326 85.502 115.998 85.208 116.446 84.62L117.58 85.558C117.244 86.0433 116.8 86.4167 116.25 86.678C115.699 86.9393 115.06 87.07 114.332 87.07C113.594 87.07 112.936 86.9113 112.358 86.594C111.788 86.2767 111.345 85.8333 111.028 85.264C110.71 84.6853 110.552 84.0227 110.552 83.276C110.552 82.52 110.71 81.8527 111.028 81.274C111.354 80.6953 111.802 80.2473 112.372 79.93C112.95 79.6127 113.613 79.454 114.36 79.454C115.041 79.454 115.648 79.5753 116.18 79.818C116.721 80.0513 117.16 80.3873 117.496 80.826L116.39 81.876ZM124.032 81.876C123.528 81.3253 122.875 81.05 122.072 81.05C121.465 81.05 120.971 81.2553 120.588 81.666C120.215 82.0767 120.028 82.6087 120.028 83.262C120.028 83.934 120.215 84.4753 120.588 84.886C120.971 85.2967 121.465 85.502 122.072 85.502C122.968 85.502 123.64 85.208 124.088 84.62L125.222 85.558C124.886 86.0433 124.443 86.4167 123.892 86.678C123.341 86.9393 122.702 87.07 121.974 87.07C121.237 87.07 120.579 86.9113 120 86.594C119.431 86.2767 118.987 85.8333 118.67 85.264C118.353 84.6853 118.194 84.0227 118.194 83.276C118.194 82.52 118.353 81.8527 118.67 81.274C118.997 80.6953 119.445 80.2473 120.014 79.93C120.593 79.6127 121.255 79.454 122.002 79.454C122.683 79.454 123.29 79.5753 123.822 79.818C124.363 80.0513 124.802 80.3873 125.138 80.826L124.032 81.876ZM129.645 79.454C130.839 79.454 131.735 79.7947 132.333 80.476C132.939 81.1573 133.243 82.114 133.243 83.346C133.243 83.5887 133.238 83.7707 133.229 83.892H127.699C127.82 84.424 128.067 84.844 128.441 85.152C128.823 85.4507 129.29 85.6 129.841 85.6C130.223 85.6 130.587 85.53 130.933 85.39C131.287 85.2407 131.595 85.0307 131.857 84.76L132.837 85.782C132.463 86.1927 132.006 86.51 131.465 86.734C130.933 86.958 130.34 87.07 129.687 87.07C128.921 87.07 128.245 86.9113 127.657 86.594C127.078 86.2767 126.63 85.8333 126.313 85.264C125.995 84.6853 125.837 84.0227 125.837 83.276C125.837 82.5293 125.995 81.8667 126.313 81.288C126.639 80.7093 127.092 80.2613 127.671 79.944C128.249 79.6173 128.907 79.454 129.645 79.454ZM131.577 82.674C131.558 82.1233 131.376 81.6847 131.031 81.358C130.685 81.0313 130.228 80.868 129.659 80.868C129.127 80.868 128.679 81.0313 128.315 81.358C127.96 81.6753 127.741 82.114 127.657 82.674H131.577ZM139.246 81.54C138.882 81.3253 138.504 81.1573 138.112 81.036C137.729 80.9147 137.374 80.854 137.048 80.854C136.74 80.854 136.492 80.91 136.306 81.022C136.128 81.1247 136.04 81.288 136.04 81.512C136.04 81.7453 136.152 81.9273 136.376 82.058C136.609 82.1793 136.973 82.31 137.468 82.45C137.99 82.6087 138.42 82.7673 138.756 82.926C139.092 83.0753 139.381 83.304 139.624 83.612C139.876 83.9107 140.002 84.3073 140.002 84.802C140.002 85.53 139.722 86.09 139.162 86.482C138.602 86.874 137.897 87.07 137.048 87.07C136.469 87.07 135.904 86.9813 135.354 86.804C134.803 86.6173 134.336 86.356 133.954 86.02L134.584 84.746C134.92 85.0353 135.321 85.264 135.788 85.432C136.254 85.5907 136.698 85.67 137.118 85.67C137.454 85.67 137.72 85.614 137.916 85.502C138.121 85.3807 138.224 85.2033 138.224 84.97C138.224 84.7087 138.107 84.5127 137.874 84.382C137.64 84.2513 137.262 84.1067 136.74 83.948C136.236 83.7987 135.825 83.654 135.508 83.514C135.19 83.3647 134.915 83.1453 134.682 82.856C134.448 82.5573 134.332 82.17 134.332 81.694C134.332 80.9567 134.598 80.3967 135.13 80.014C135.671 79.622 136.348 79.426 137.16 79.426C137.654 79.426 138.14 79.496 138.616 79.636C139.101 79.776 139.53 79.972 139.904 80.224L139.246 81.54ZM146 81.54C145.636 81.3253 145.258 81.1573 144.866 81.036C144.483 80.9147 144.128 80.854 143.802 80.854C143.494 80.854 143.246 80.91 143.06 81.022C142.882 81.1247 142.794 81.288 142.794 81.512C142.794 81.7453 142.906 81.9273 143.13 82.058C143.363 82.1793 143.727 82.31 144.222 82.45C144.744 82.6087 145.174 82.7673 145.51 82.926C145.846 83.0753 146.135 83.304 146.378 83.612C146.63 83.9107 146.756 84.3073 146.756 84.802C146.756 85.53 146.476 86.09 145.916 86.482C145.356 86.874 144.651 87.07 143.802 87.07C143.223 87.07 142.658 86.9813 142.108 86.804C141.557 86.6173 141.09 86.356 140.708 86.02L141.338 84.746C141.674 85.0353 142.075 85.264 142.542 85.432C143.008 85.5907 143.452 85.67 143.872 85.67C144.208 85.67 144.474 85.614 144.67 85.502C144.875 85.3807 144.978 85.2033 144.978 84.97C144.978 84.7087 144.861 84.5127 144.628 84.382C144.394 84.2513 144.016 84.1067 143.494 83.948C142.99 83.7987 142.579 83.654 142.262 83.514C141.944 83.3647 141.669 83.1453 141.436 82.856C141.202 82.5573 141.086 82.17 141.086 81.694C141.086 80.9567 141.352 80.3967 141.884 80.014C142.425 79.622 143.102 79.426 143.914 79.426C144.408 79.426 144.894 79.496 145.37 79.636C145.855 79.776 146.284 79.972 146.658 80.224L146 81.54ZM158.467 82.128H160.105V85.852C159.592 86.2347 158.985 86.5473 158.285 86.79C157.585 87.0233 156.899 87.14 156.227 87.14C155.266 87.14 154.389 86.916 153.595 86.468C152.811 86.02 152.191 85.4133 151.733 84.648C151.276 83.8733 151.047 83.0193 151.047 82.086C151.047 81.1527 151.281 80.308 151.747 79.552C152.214 78.7867 152.849 78.1847 153.651 77.746C154.463 77.298 155.359 77.074 156.339 77.074C157.039 77.074 157.73 77.2 158.411 77.452C159.093 77.704 159.681 78.0493 160.175 78.488L159.111 79.874C158.738 79.5193 158.304 79.244 157.809 79.048C157.324 78.852 156.834 78.754 156.339 78.754C155.723 78.754 155.154 78.9033 154.631 79.202C154.118 79.4913 153.712 79.8927 153.413 80.406C153.115 80.9193 152.965 81.4793 152.965 82.086C152.965 82.702 153.115 83.2667 153.413 83.78C153.721 84.2933 154.132 84.6993 154.645 84.998C155.159 85.2967 155.728 85.446 156.353 85.446C156.689 85.446 157.039 85.3947 157.403 85.292C157.777 85.18 158.131 85.026 158.467 84.83V82.128ZM164.026 80.952C164.278 80.4667 164.619 80.098 165.048 79.846C165.487 79.5847 165.996 79.4493 166.574 79.44V81.204C165.8 81.1573 165.179 81.3393 164.712 81.75C164.255 82.1513 164.026 82.6973 164.026 83.388V87H162.206V79.51H164.026V80.952ZM172.017 87V86.09C171.756 86.4167 171.42 86.664 171.009 86.832C170.598 87 170.127 87.084 169.595 87.084C169.072 87.084 168.61 86.986 168.209 86.79C167.817 86.5847 167.514 86.3047 167.299 85.95C167.084 85.5953 166.977 85.1987 166.977 84.76C166.977 84.06 167.224 83.514 167.719 83.122C168.214 82.7207 168.914 82.5153 169.819 82.506H172.003V82.31C172.003 81.8713 171.858 81.5307 171.569 81.288C171.28 81.0453 170.86 80.924 170.309 80.924C169.6 80.924 168.858 81.1573 168.083 81.624L167.425 80.364C168.013 80.0373 168.545 79.804 169.021 79.664C169.506 79.5147 170.071 79.44 170.715 79.44C171.686 79.44 172.437 79.6733 172.969 80.14C173.51 80.6067 173.786 81.26 173.795 82.1L173.809 87H172.017ZM170.029 85.684C170.552 85.684 171 85.5627 171.373 85.32C171.746 85.068 171.956 84.76 172.003 84.396V83.724H170.113C169.628 83.724 169.268 83.7987 169.035 83.948C168.811 84.088 168.699 84.3213 168.699 84.648C168.699 84.9653 168.816 85.2173 169.049 85.404C169.292 85.5907 169.618 85.684 170.029 85.684ZM180.359 79.44C181.217 79.44 181.894 79.7013 182.389 80.224C182.883 80.7373 183.131 81.4373 183.131 82.324V87H181.297V82.856C181.297 82.3333 181.147 81.9227 180.849 81.624C180.55 81.316 180.144 81.162 179.631 81.162C179.024 81.1713 178.543 81.3767 178.189 81.778C177.843 82.1793 177.671 82.6927 177.671 83.318V87H175.851V79.51H177.671V80.91C178.184 79.9487 179.08 79.4587 180.359 79.44ZM189.557 86.538C188.96 86.902 188.334 87.084 187.681 87.084C187.037 87.084 186.51 86.8973 186.099 86.524C185.688 86.1413 185.483 85.5813 185.483 84.844V81.148H184.433L184.419 79.818H185.483V77.76H187.289V79.818H189.431V81.148H187.289V84.522C187.289 84.8673 187.354 85.1147 187.485 85.264C187.616 85.404 187.812 85.474 188.073 85.474C188.353 85.474 188.708 85.3713 189.137 85.166L189.557 86.538ZM194.039 79.454C195.234 79.454 196.13 79.7947 196.727 80.476C197.334 81.1573 197.637 82.114 197.637 83.346C197.637 83.5887 197.633 83.7707 197.623 83.892H192.093C192.215 84.424 192.462 84.844 192.835 85.152C193.218 85.4507 193.685 85.6 194.235 85.6C194.618 85.6 194.982 85.53 195.327 85.39C195.682 85.2407 195.99 85.0307 196.251 84.76L197.231 85.782C196.858 86.1927 196.401 86.51 195.859 86.734C195.327 86.958 194.735 87.07 194.081 87.07C193.316 87.07 192.639 86.9113 192.051 86.594C191.473 86.2767 191.025 85.8333 190.707 85.264C190.39 84.6853 190.231 84.0227 190.231 83.276C190.231 82.5293 190.39 81.8667 190.707 81.288C191.034 80.7093 191.487 80.2613 192.065 79.944C192.644 79.6173 193.302 79.454 194.039 79.454ZM195.971 82.674C195.953 82.1233 195.771 81.6847 195.425 81.358C195.08 81.0313 194.623 80.868 194.053 80.868C193.521 80.868 193.073 81.0313 192.709 81.358C192.355 81.6753 192.135 82.114 192.051 82.674H195.971ZM206.426 76.612V87H204.606V85.796C204.336 86.216 203.986 86.538 203.556 86.762C203.136 86.9767 202.646 87.084 202.086 87.084C201.377 87.084 200.752 86.9253 200.21 86.608C199.678 86.2813 199.263 85.8287 198.964 85.25C198.666 84.662 198.516 83.99 198.516 83.234C198.516 82.4873 198.661 81.8293 198.95 81.26C199.249 80.6813 199.664 80.2333 200.196 79.916C200.738 79.5987 201.354 79.44 202.044 79.44C202.614 79.44 203.113 79.552 203.542 79.776C203.972 80 204.326 80.322 204.606 80.742V76.612H206.426ZM202.478 85.558C203.104 85.558 203.612 85.348 204.004 84.928C204.406 84.4987 204.606 83.948 204.606 83.276C204.606 82.604 204.406 82.058 204.004 81.638C203.612 81.2087 203.104 80.994 202.478 80.994C201.853 80.994 201.344 81.2087 200.952 81.638C200.56 82.058 200.36 82.604 200.35 83.276C200.36 83.948 200.56 84.4987 200.952 84.928C201.344 85.348 201.853 85.558 202.478 85.558Z" fill="black"/>
<path d="M105.76 24.152C105.76 24.528 105.656 24.86 105.448 25.148C105.248 25.436 104.952 25.664 104.56 25.832C104.176 25.992 103.7 26.072 103.132 26.072C102.612 26.072 102.112 25.992 101.632 25.832C101.16 25.672 100.788 25.468 100.516 25.22L100.876 24.548C101.124 24.78 101.452 24.972 101.86 25.124C102.276 25.268 102.708 25.34 103.156 25.34C103.78 25.34 104.224 25.232 104.488 25.016C104.76 24.792 104.896 24.528 104.896 24.224C104.896 23.968 104.82 23.768 104.668 23.624C104.516 23.472 104.316 23.352 104.068 23.264C103.82 23.168 103.548 23.088 103.252 23.024C102.956 22.96 102.66 22.888 102.364 22.808C102.068 22.728 101.792 22.62 101.536 22.484C101.288 22.348 101.088 22.168 100.936 21.944C100.792 21.72 100.72 21.424 100.72 21.056C100.72 20.688 100.82 20.36 101.02 20.072C101.22 19.784 101.512 19.556 101.896 19.388C102.28 19.22 102.752 19.136 103.312 19.136C103.712 19.136 104.104 19.188 104.488 19.292C104.88 19.388 105.216 19.536 105.496 19.736L105.184 20.432C104.896 20.232 104.588 20.092 104.26 20.012C103.932 19.924 103.608 19.88 103.288 19.88C102.696 19.88 102.26 19.992 101.98 20.216C101.708 20.432 101.572 20.7 101.572 21.02C101.572 21.276 101.648 21.48 101.8 21.632C101.952 21.776 102.152 21.896 102.4 21.992C102.648 22.08 102.92 22.156 103.216 22.22C103.52 22.284 103.82 22.356 104.116 22.436C104.412 22.516 104.684 22.624 104.932 22.76C105.18 22.888 105.38 23.064 105.532 23.288C105.684 23.512 105.76 23.8 105.76 24.152ZM110.493 26.072C109.805 26.072 109.185 25.924 108.633 25.628C108.081 25.324 107.645 24.912 107.325 24.392C107.013 23.864 106.857 23.268 106.857 22.604C106.857 21.94 107.013 21.348 107.325 20.828C107.645 20.308 108.081 19.896 108.633 19.592C109.185 19.288 109.805 19.136 110.493 19.136C111.189 19.136 111.809 19.288 112.353 19.592C112.905 19.896 113.337 20.308 113.649 20.828C113.969 21.348 114.129 21.94 114.129 22.604C114.129 23.268 113.969 23.864 113.649 24.392C113.337 24.912 112.905 25.324 112.353 25.628C111.809 25.924 111.189 26.072 110.493 26.072ZM110.493 25.328C111.029 25.328 111.505 25.212 111.921 24.98C112.337 24.74 112.665 24.416 112.905 24.008C113.145 23.592 113.265 23.124 113.265 22.604C113.265 22.084 113.141 21.62 112.893 21.212C112.653 20.804 112.325 20.484 111.909 20.252C111.501 20.012 111.029 19.892 110.493 19.892C109.965 19.892 109.489 20.012 109.065 20.252C108.649 20.484 108.321 20.804 108.081 21.212C107.841 21.62 107.721 22.084 107.721 22.604C107.721 23.124 107.841 23.592 108.081 24.008C108.321 24.416 108.649 24.74 109.065 24.98C109.489 25.212 109.965 25.328 110.493 25.328ZM118.775 26.072C118.175 26.072 117.659 25.96 117.227 25.736C116.803 25.504 116.475 25.168 116.243 24.728C116.011 24.288 115.895 23.752 115.895 23.12V19.22H116.759V23.096C116.759 23.84 116.935 24.4 117.287 24.776C117.639 25.144 118.135 25.328 118.775 25.328C119.423 25.328 119.923 25.144 120.275 24.776C120.627 24.4 120.803 23.84 120.803 23.096V19.22H121.643V23.12C121.643 23.752 121.527 24.288 121.295 24.728C121.071 25.168 120.743 25.504 120.311 25.736C119.887 25.96 119.375 26.072 118.775 26.072ZM125.264 26V19.94H122.876V19.22H128.516V19.94H126.128V26H125.264ZM129.819 26V19.22H130.683V22.196H134.799V19.22H135.663V26H134.799V22.928H130.683V26H129.819ZM142.046 22.208H145.694V22.916H142.046V22.208ZM142.19 25.28H146.258V26H141.326V19.22H146.114V19.94H142.19V25.28ZM148.123 26V19.22H148.831L153.439 24.932H153.103V19.22H153.967V26H153.247L148.639 20.276H148.987V26H148.123ZM157.666 26V19.94H155.278V19.22H160.918V19.94H158.53V26H157.666ZM162.221 26V19.22H164.849C165.441 19.22 165.945 19.312 166.361 19.496C166.785 19.68 167.113 19.948 167.345 20.3C167.577 20.644 167.693 21.064 167.693 21.56C167.693 22.04 167.577 22.456 167.345 22.808C167.113 23.16 166.785 23.428 166.361 23.612C165.945 23.796 165.441 23.888 164.849 23.888H162.701L163.085 23.504V26H162.221ZM166.865 26L165.089 23.54H166.037L167.801 26H166.865ZM163.085 23.588L162.749 23.18H164.813C165.469 23.18 165.969 23.04 166.313 22.76C166.657 22.472 166.829 22.072 166.829 21.56C166.829 21.04 166.657 20.64 166.313 20.36C165.969 20.08 165.469 19.94 164.813 19.94H162.749L163.085 19.532V23.588ZM168.473 26L171.605 19.22H172.457L175.589 26H174.725L171.881 19.688H172.181L169.325 26H168.473ZM169.793 24.248L170.045 23.552H173.909L174.161 24.248H169.793ZM176.881 26V19.22H177.589L182.197 24.932H181.861V19.22H182.725V26H182.005L177.397 20.276H177.745V26H176.881ZM188.188 26.072C187.5 26.072 186.88 25.924 186.328 25.628C185.784 25.324 185.352 24.912 185.032 24.392C184.72 23.864 184.564 23.268 184.564 22.604C184.564 21.94 184.72 21.348 185.032 20.828C185.352 20.308 185.784 19.896 186.328 19.592C186.88 19.288 187.5 19.136 188.188 19.136C188.732 19.136 189.22 19.22 189.652 19.388C190.084 19.556 190.456 19.808 190.768 20.144L190.216 20.708C189.944 20.428 189.64 20.224 189.304 20.096C188.968 19.96 188.604 19.892 188.212 19.892C187.684 19.892 187.208 20.012 186.784 20.252C186.36 20.484 186.028 20.804 185.788 21.212C185.548 21.62 185.428 22.084 185.428 22.604C185.428 23.124 185.548 23.592 185.788 24.008C186.028 24.416 186.36 24.736 186.784 24.968C187.208 25.2 187.684 25.316 188.212 25.316C188.604 25.316 188.968 25.252 189.304 25.124C189.64 24.996 189.944 24.788 190.216 24.5L190.768 25.064C190.456 25.4 190.08 25.652 189.64 25.82C189.208 25.988 188.724 26.072 188.188 26.072ZM193.187 22.208H196.835V22.916H193.187V22.208ZM193.331 25.28H197.399V26H192.467V19.22H197.255V19.94H193.331V25.28Z" fill="#333333" fill-opacity="0.5"/>
<path d="M99.55 39.9348H109.09V60.9648H103.6V44.4348H99.55V39.9348ZM129.289 56.5548V60.9648H113.269L113.239 57.3348L120.889 49.4748C121.489 48.8548 121.979 48.2348 122.359 47.6148C122.739 46.9948 122.929 46.4648 122.929 46.0248C122.929 45.4448 122.719 45.0048 122.299 44.7048C121.879 44.3848 121.289 44.2248 120.529 44.2248C119.689 44.2248 118.749 44.4648 117.709 44.9448C116.689 45.4048 115.699 46.0548 114.739 46.8948L112.639 42.8448C115.539 40.7448 118.449 39.6948 121.369 39.6948C122.769 39.6948 124.019 39.9248 125.119 40.3848C126.239 40.8448 127.109 41.4948 127.729 42.3348C128.369 43.1748 128.689 44.1348 128.689 45.2148C128.689 46.2948 128.329 47.4148 127.609 48.5748C126.909 49.7148 125.909 50.9348 124.609 52.2348L120.319 56.5548H129.289ZM133.953 47.1048C134.713 47.1048 135.333 47.3448 135.813 47.8248C136.293 48.3048 136.533 48.9248 136.533 49.6848C136.533 50.4448 136.293 51.0748 135.813 51.5748C135.333 52.0548 134.713 52.2948 133.953 52.2948C133.213 52.2948 132.603 52.0548 132.123 51.5748C131.643 51.0748 131.403 50.4448 131.403 49.6848C131.403 48.9248 131.633 48.3048 132.093 47.8248C132.573 47.3448 133.193 47.1048 133.953 47.1048ZM133.953 56.0148C134.713 56.0148 135.333 56.2548 135.813 56.7348C136.293 57.2148 136.533 57.8348 136.533 58.5948C136.533 59.3548 136.293 59.9848 135.813 60.4848C135.333 60.9648 134.713 61.2048 133.953 61.2048C133.213 61.2048 132.603 60.9648 132.123 60.4848C131.643 59.9848 131.403 59.3548 131.403 58.5948C131.403 57.8348 131.633 57.2148 132.093 56.7348C132.573 56.2548 133.193 56.0148 133.953 56.0148ZM148.236 39.7548C151.216 39.7548 153.506 40.6748 155.106 42.5148C156.726 44.3548 157.536 46.9948 157.536 50.4348C157.536 53.8748 156.726 56.5248 155.106 58.3848C153.506 60.2248 151.216 61.1448 148.236 61.1448C145.216 61.1448 142.896 60.2248 141.276 58.3848C139.676 56.5248 138.876 53.8748 138.876 50.4348C138.876 46.9948 139.676 44.3548 141.276 42.5148C142.896 40.6748 145.216 39.7548 148.236 39.7548ZM148.236 43.8348C146.916 43.8348 145.966 44.3548 145.386 45.3948C144.806 46.4148 144.516 48.0948 144.516 50.4348C144.516 52.7948 144.806 54.4948 145.386 55.5348C145.966 56.5548 146.916 57.0648 148.236 57.0648C149.516 57.0648 150.446 56.5448 151.026 55.5048C151.626 54.4648 151.926 52.7748 151.926 50.4348C151.926 48.0948 151.626 46.4148 151.026 45.3948C150.446 44.3548 149.516 43.8348 148.236 43.8348ZM159.13 39.9348H175.9V43.7448L167.98 60.9648H162.16L169.81 44.3448H163.99L163.96 47.3148H159.13V39.9348ZM194.337 39.9348C197.017 39.9348 199.097 40.5848 200.577 41.8848C202.057 43.1648 202.797 44.9748 202.797 47.3148C202.797 49.7948 202.057 51.7248 200.577 53.1048C199.097 54.4648 197.017 55.1448 194.337 55.1448H190.587V60.9648H185.097V39.9348H194.337ZM194.067 50.7648C195.187 50.7648 196.047 50.4848 196.647 49.9248C197.267 49.3648 197.577 48.5548 197.577 47.4948C197.577 46.4748 197.267 45.6948 196.647 45.1548C196.047 44.5948 195.187 44.3148 194.067 44.3148H190.587V50.7648H194.067ZM205.487 39.9348H211.457L217.547 52.2348L223.607 39.9348H229.577V60.9648H224.717L224.687 47.6448L219.317 58.8648H215.777L210.377 47.6448V60.9648H205.487V39.9348Z" fill="black"/>
<rect x="12" y="12" width="80" height="80" rx="6" fill="white"/>
<path fill-rule="evenodd" clip-rule="evenodd" d="M48 34.8242C48 33.1349 49.3695 31.7654 51.0588 31.7654H70.1176V33.1771H51.0588C50.1492 33.1771 49.4118 33.9146 49.4118 34.8242V46.5889C49.4118 46.9788 49.0957 47.2948 48.7059 47.2948C48.316 47.2948 48 46.9788 48 46.5889V34.8242ZM48.7059 55.2948C49.0957 55.2948 49.4118 55.6108 49.4118 56.0007V65.4124C49.4118 66.3221 50.1492 67.0595 51.0588 67.0595H55.7647V68.4713H51.0588C49.3695 68.4713 48 67.1018 48 65.4124V56.0007C48 55.6108 48.316 55.2948 48.7059 55.2948Z" fill="black"/>
<path d="M69.1192 32.5985L57.3545 36.6322C56.4034 36.9582 55.7646 37.8525 55.7646 38.8579V69.2655C55.7646 70.8544 57.3072 71.9866 58.8231 71.5101L70.5878 67.8127C71.5682 67.5045 72.2352 66.5957 72.2352 65.568V34.8243C72.2352 33.2098 70.6464 32.0749 69.1192 32.5985Z" fill="#FFA3B5"/>
<path fill-rule="evenodd" clip-rule="evenodd" d="M71.5292 34.8244C71.5292 33.6943 70.417 32.8999 69.3479 33.2664L57.5832 37.3C56.9175 37.5283 56.4704 38.1543 56.4704 38.8581V69.2656C56.4704 70.3779 57.5501 71.1704 58.6112 70.8369L70.376 67.1394C71.0623 66.9237 71.5292 66.2875 71.5292 65.5681V34.8244ZM68.8901 31.931C70.8755 31.2503 72.9409 32.7256 72.9409 34.8244V65.5681C72.9409 66.9042 72.0738 68.0856 70.7992 68.4862L59.0345 72.1837C57.0639 72.803 55.0586 71.3313 55.0586 69.2656V38.8581C55.0586 37.5511 55.889 36.3885 57.1254 35.9646L68.8901 31.931Z" fill="black"/>
<path fill-rule="evenodd" clip-rule="evenodd" d="M61.8457 52.9543C61.969 53.3241 61.7691 53.7239 61.3993 53.8472L58.5758 54.7883C58.2059 54.9116 57.8062 54.7117 57.6829 54.3419C57.5596 53.9721 57.7595 53.5723 58.1293 53.449L60.9529 52.5079C61.3227 52.3846 61.7225 52.5844 61.8457 52.9543Z" fill="black"/>
<path fill-rule="evenodd" clip-rule="evenodd" d="M45.788 47.342C46.0219 47.0301 46.4644 46.9669 46.7763 47.2008L51.4822 50.7302C51.6599 50.8635 51.7645 51.0727 51.7645 51.2949C51.7645 51.5171 51.6599 51.7263 51.4822 51.8596L46.7763 55.389C46.4644 55.6229 46.0219 55.5597 45.788 55.2478C45.5541 54.936 45.6173 54.4935 45.9292 54.2596L48.941 52.0008H29.8822C29.4923 52.0008 29.1763 51.6848 29.1763 51.2949C29.1763 50.9051 29.4923 50.589 29.8822 50.589H48.941L45.9292 48.3302C45.6173 48.0963 45.5541 47.6538 45.788 47.342Z" fill="black"/>
</svg>
