<svg width="264" height="104" viewBox="0 0 264 104" fill="none" xmlns="http://www.w3.org/2000/svg">
<rect width="264" height="104" rx="12" fill="#F2F2F2" fill-opacity="0.5"/>
<path d="M108.302 80.028C107.957 79.6267 107.546 79.314 107.07 79.09C106.603 78.866 106.127 78.754 105.642 78.754C105.035 78.754 104.48 78.8987 103.976 79.188C103.472 79.4773 103.075 79.8787 102.786 80.392C102.497 80.896 102.352 81.4513 102.352 82.058C102.352 82.6647 102.497 83.2247 102.786 83.738C103.075 84.242 103.472 84.6433 103.976 84.942C104.48 85.2313 105.035 85.376 105.642 85.376C106.109 85.376 106.575 85.2733 107.042 85.068C107.518 84.8627 107.938 84.578 108.302 84.214L109.408 85.446C108.895 85.9687 108.297 86.384 107.616 86.692C106.935 86.9907 106.244 87.14 105.544 87.14C104.601 87.14 103.738 86.916 102.954 86.468C102.17 86.02 101.554 85.4133 101.106 84.648C100.658 83.8733 100.434 83.0193 100.434 82.086C100.434 81.1527 100.663 80.3033 101.12 79.538C101.577 78.7727 102.198 78.1707 102.982 77.732C103.775 77.2933 104.653 77.074 105.614 77.074C106.314 77.074 107 77.214 107.672 77.494C108.344 77.774 108.918 78.1613 109.394 78.656L108.302 80.028ZM110.952 76.612H112.772V87H110.952V76.612ZM118.383 79.454C119.157 79.454 119.839 79.6127 120.427 79.93C121.024 80.2473 121.486 80.6953 121.813 81.274C122.149 81.8433 122.317 82.5013 122.317 83.248C122.317 84.004 122.149 84.6713 121.813 85.25C121.486 85.8287 121.024 86.2767 120.427 86.594C119.839 86.9113 119.157 87.07 118.383 87.07C117.599 87.07 116.908 86.9113 116.311 86.594C115.713 86.2767 115.247 85.8287 114.911 85.25C114.584 84.6713 114.421 84.004 114.421 83.248C114.421 82.5013 114.584 81.8433 114.911 81.274C115.247 80.6953 115.713 80.2473 116.311 79.93C116.908 79.6127 117.599 79.454 118.383 79.454ZM118.383 81.008C117.748 81.008 117.235 81.218 116.843 81.638C116.451 82.058 116.255 82.604 116.255 83.276C116.255 83.948 116.451 84.494 116.843 84.914C117.235 85.334 117.748 85.544 118.383 85.544C118.999 85.544 119.503 85.334 119.895 84.914C120.287 84.494 120.483 83.948 120.483 83.276C120.483 82.604 120.287 82.058 119.895 81.638C119.503 81.218 118.999 81.008 118.383 81.008ZM129.05 81.876C128.546 81.3253 127.892 81.05 127.09 81.05C126.483 81.05 125.988 81.2553 125.606 81.666C125.232 82.0767 125.046 82.6087 125.046 83.262C125.046 83.934 125.232 84.4753 125.606 84.886C125.988 85.2967 126.483 85.502 127.09 85.502C127.986 85.502 128.658 85.208 129.106 84.62L130.24 85.558C129.904 86.0433 129.46 86.4167 128.91 86.678C128.359 86.9393 127.72 87.07 126.992 87.07C126.254 87.07 125.596 86.9113 125.018 86.594C124.448 86.2767 124.005 85.8333 123.688 85.264C123.37 84.6853 123.212 84.0227 123.212 83.276C123.212 82.52 123.37 81.8527 123.688 81.274C124.014 80.6953 124.462 80.2473 125.032 79.93C125.61 79.6127 126.273 79.454 127.02 79.454C127.701 79.454 128.308 79.5753 128.84 79.818C129.381 80.0513 129.82 80.3873 130.156 80.826L129.05 81.876ZM136.868 87L134.838 83.724L133.69 84.928V87H131.87V76.612H133.69V82.632L136.77 79.524H138.87L136.098 82.408L139.038 87H136.868ZM143.778 77.2H145.654V87H143.778V77.2ZM152.496 79.44C153.354 79.44 154.031 79.7013 154.526 80.224C155.02 80.7373 155.268 81.4373 155.268 82.324V87H153.434V82.856C153.434 82.3333 153.284 81.9227 152.986 81.624C152.687 81.316 152.281 81.162 151.768 81.162C151.161 81.1713 150.68 81.3767 150.326 81.778C149.98 82.1793 149.808 82.6927 149.808 83.318V87H147.988V79.51H149.808V80.91C150.321 79.9487 151.217 79.4587 152.496 79.44Z" fill="black"/>
<path d="M104.212 26.072C103.524 26.072 102.904 25.924 102.352 25.628C101.8 25.324 101.364 24.912 101.044 24.392C100.732 23.864 100.576 23.268 100.576 22.604C100.576 21.94 100.732 21.348 101.044 20.828C101.364 20.308 101.8 19.896 102.352 19.592C102.904 19.288 103.524 19.136 104.212 19.136C104.908 19.136 105.528 19.288 106.072 19.592C106.624 19.896 107.056 20.308 107.368 20.828C107.688 21.348 107.848 21.94 107.848 22.604C107.848 23.268 107.688 23.864 107.368 24.392C107.056 24.912 106.624 25.324 106.072 25.628C105.528 25.924 104.908 26.072 104.212 26.072ZM104.212 25.328C104.748 25.328 105.224 25.212 105.64 24.98C106.056 24.74 106.384 24.416 106.624 24.008C106.864 23.592 106.984 23.124 106.984 22.604C106.984 22.084 106.86 21.62 106.612 21.212C106.372 20.804 106.044 20.484 105.628 20.252C105.22 20.012 104.748 19.892 104.212 19.892C103.684 19.892 103.208 20.012 102.784 20.252C102.368 20.484 102.04 20.804 101.8 21.212C101.56 21.62 101.44 22.084 101.44 22.604C101.44 23.124 101.56 23.592 101.8 24.008C102.04 24.416 102.368 24.74 102.784 24.98C103.208 25.212 103.684 25.328 104.212 25.328ZM110.406 22.46H114.054V23.192H110.406V22.46ZM110.55 26H109.686V19.22H114.474V19.94H110.55V26ZM116.875 22.46H120.523V23.192H116.875V22.46ZM117.019 26H116.155V19.22H120.943V19.94H117.019V26ZM122.623 26V19.22H123.487V26H122.623ZM128.95 26.072C128.262 26.072 127.642 25.924 127.09 25.628C126.546 25.324 126.114 24.912 125.794 24.392C125.482 23.864 125.326 23.268 125.326 22.604C125.326 21.94 125.482 21.348 125.794 20.828C126.114 20.308 126.546 19.896 127.09 19.592C127.642 19.288 128.262 19.136 128.95 19.136C129.494 19.136 129.982 19.22 130.414 19.388C130.846 19.556 131.218 19.808 131.53 20.144L130.978 20.708C130.706 20.428 130.402 20.224 130.066 20.096C129.73 19.96 129.366 19.892 128.974 19.892C128.446 19.892 127.97 20.012 127.546 20.252C127.122 20.484 126.79 20.804 126.55 21.212C126.31 21.62 126.19 22.084 126.19 22.604C126.19 23.124 126.31 23.592 126.55 24.008C126.79 24.416 127.122 24.736 127.546 24.968C127.97 25.2 128.446 25.316 128.974 25.316C129.366 25.316 129.73 25.252 130.066 25.124C130.402 24.996 130.706 24.788 130.978 24.5L131.53 25.064C131.218 25.4 130.842 25.652 130.402 25.82C129.97 25.988 129.486 26.072 128.95 26.072ZM133.949 22.208H137.597V22.916H133.949V22.208ZM134.093 25.28H138.161V26H133.229V19.22H138.017V19.94H134.093V25.28Z" fill="#333333" fill-opacity="0.5"/>
<path d="M109.06 39.6948C111.32 39.6948 113.12 40.2148 114.46 41.2548C115.8 42.2748 116.47 43.6548 116.47 45.3948C116.47 46.2748 116.24 47.1048 115.78 47.8848C115.34 48.6448 114.74 49.2548 113.98 49.7148C115.08 50.2148 115.95 50.9448 116.59 51.9048C117.23 52.8448 117.55 53.8948 117.55 55.0548C117.55 56.2948 117.2 57.3848 116.5 58.3248C115.82 59.2448 114.84 59.9548 113.56 60.4548C112.28 60.9548 110.79 61.2048 109.09 61.2048C107.39 61.2048 105.9 60.9548 104.62 60.4548C103.36 59.9548 102.38 59.2548 101.68 58.3548C100.98 57.4348 100.63 56.3648 100.63 55.1448C100.63 53.9648 100.98 52.8948 101.68 51.9348C102.38 50.9548 103.31 50.2148 104.47 49.7148C103.63 49.2148 102.96 48.5648 102.46 47.7648C101.96 46.9648 101.71 46.1248 101.71 45.2448C101.71 44.1248 102.01 43.1448 102.61 42.3048C103.21 41.4648 104.06 40.8248 105.16 40.3848C106.28 39.9248 107.58 39.6948 109.06 39.6948ZM109.09 43.3848C108.19 43.3848 107.49 43.5848 106.99 43.9848C106.51 44.3848 106.27 44.9548 106.27 45.6948C106.27 46.4148 106.51 46.9748 106.99 47.3748C107.49 47.7548 108.19 47.9448 109.09 47.9448C110.01 47.9448 110.71 47.7548 111.19 47.3748C111.67 46.9748 111.91 46.4148 111.91 45.6948C111.91 44.9548 111.67 44.3848 111.19 43.9848C110.71 43.5848 110.01 43.3848 109.09 43.3848ZM109.09 51.9648C108.03 51.9648 107.21 52.1948 106.63 52.6548C106.07 53.0948 105.79 53.7348 105.79 54.5748C105.79 55.4148 106.07 56.0648 106.63 56.5248C107.21 56.9648 108.03 57.1848 109.09 57.1848C110.15 57.1848 110.97 56.9648 111.55 56.5248C112.13 56.0648 112.42 55.4148 112.42 54.5748C112.42 53.7348 112.13 53.0948 111.55 52.6548C110.97 52.1948 110.15 51.9648 109.09 51.9648ZM122.586 47.1048C123.346 47.1048 123.966 47.3448 124.446 47.8248C124.926 48.3048 125.166 48.9248 125.166 49.6848C125.166 50.4448 124.926 51.0748 124.446 51.5748C123.966 52.0548 123.346 52.2948 122.586 52.2948C121.846 52.2948 121.236 52.0548 120.756 51.5748C120.276 51.0748 120.036 50.4448 120.036 49.6848C120.036 48.9248 120.266 48.3048 120.726 47.8248C121.206 47.3448 121.826 47.1048 122.586 47.1048ZM122.586 56.0148C123.346 56.0148 123.966 56.2548 124.446 56.7348C124.926 57.2148 125.166 57.8348 125.166 58.5948C125.166 59.3548 124.926 59.9848 124.446 60.4848C123.966 60.9648 123.346 61.2048 122.586 61.2048C121.846 61.2048 121.236 60.9648 120.756 60.4848C120.276 59.9848 120.036 59.3548 120.036 58.5948C120.036 57.8348 120.266 57.2148 120.726 56.7348C121.206 56.2548 121.826 56.0148 122.586 56.0148ZM136.869 39.7548C139.849 39.7548 142.139 40.6748 143.739 42.5148C145.359 44.3548 146.169 46.9948 146.169 50.4348C146.169 53.8748 145.359 56.5248 143.739 58.3848C142.139 60.2248 139.849 61.1448 136.869 61.1448C133.849 61.1448 131.529 60.2248 129.909 58.3848C128.309 56.5248 127.509 53.8748 127.509 50.4348C127.509 46.9948 128.309 44.3548 129.909 42.5148C131.529 40.6748 133.849 39.7548 136.869 39.7548ZM136.869 43.8348C135.549 43.8348 134.599 44.3548 134.019 45.3948C133.439 46.4148 133.149 48.0948 133.149 50.4348C133.149 52.7948 133.439 54.4948 134.019 55.5348C134.599 56.5548 135.549 57.0648 136.869 57.0648C138.149 57.0648 139.079 56.5448 139.659 55.5048C140.259 54.4648 140.559 52.7748 140.559 50.4348C140.559 48.0948 140.259 46.4148 139.659 45.3948C139.079 44.3548 138.149 43.8348 136.869 43.8348ZM157.963 39.7548C160.943 39.7548 163.233 40.6748 164.833 42.5148C166.453 44.3548 167.263 46.9948 167.263 50.4348C167.263 53.8748 166.453 56.5248 164.833 58.3848C163.233 60.2248 160.943 61.1448 157.963 61.1448C154.943 61.1448 152.623 60.2248 151.003 58.3848C149.403 56.5248 148.603 53.8748 148.603 50.4348C148.603 46.9948 149.403 44.3548 151.003 42.5148C152.623 40.6748 154.943 39.7548 157.963 39.7548ZM157.963 43.8348C156.643 43.8348 155.693 44.3548 155.113 45.3948C154.533 46.4148 154.243 48.0948 154.243 50.4348C154.243 52.7948 154.533 54.4948 155.113 55.5348C155.693 56.5548 156.643 57.0648 157.963 57.0648C159.243 57.0648 160.173 56.5448 160.753 55.5048C161.353 54.4648 161.653 52.7748 161.653 50.4348C161.653 48.0948 161.353 46.4148 160.753 45.3948C160.173 44.3548 159.243 43.8348 157.963 43.8348ZM192.607 60.9648L191.167 57.2448H182.077L180.607 60.9648H174.967L183.997 39.9348H189.637L198.457 60.9648H192.607ZM183.727 53.0448H189.547L186.667 45.5448L183.727 53.0448ZM200.36 39.9348H206.33L212.42 52.2348L218.48 39.9348H224.45V60.9648H219.59L219.56 47.6448L214.19 58.8648H210.65L205.25 47.6448V60.9648H200.36V39.9348Z" fill="black"/>
<rect x="12" y="12" width="80" height="80" rx="6" fill="white"/>
<path d="M69.6472 53.058C69.6472 62.7392 61.799 70.5874 52.1178 70.5874C42.4366 70.5874 34.5884 62.7392 34.5884 53.058C34.5884 43.3767 42.4366 35.5286 52.1178 35.5286C61.799 35.5286 69.6472 43.3767 69.6472 53.058Z" fill="#74D1EA"/>
<path fill-rule="evenodd" clip-rule="evenodd" d="M52.1178 69.1756C61.0193 69.1756 68.2354 61.9595 68.2354 53.058C68.2354 44.1564 61.0193 36.9403 52.1178 36.9403C43.2163 36.9403 36.0001 44.1564 36.0001 53.058C36.0001 61.9595 43.2163 69.1756 52.1178 69.1756ZM52.1178 70.5874C61.799 70.5874 69.6472 62.7392 69.6472 53.058C69.6472 43.3767 61.799 35.5286 52.1178 35.5286C42.4366 35.5286 34.5884 43.3767 34.5884 53.058C34.5884 62.7392 42.4366 70.5874 52.1178 70.5874Z" fill="black"/>
<path d="M53.8824 53.0579C53.8824 54.0325 53.0924 54.8226 52.1177 54.8226C51.1431 54.8226 50.353 54.0325 50.353 53.0579C50.353 52.0833 51.1431 51.2932 52.1177 51.2932C53.0924 51.2932 53.8824 52.0833 53.8824 53.0579Z" fill="white"/>
<path fill-rule="evenodd" clip-rule="evenodd" d="M52.1176 51.9992C51.5328 51.9992 51.0587 52.4732 51.0587 53.058C51.0587 53.6428 51.5328 54.1168 52.1176 54.1168C52.7023 54.1168 53.1764 53.6428 53.1764 53.058C53.1764 52.4732 52.7023 51.9992 52.1176 51.9992ZM49.647 53.058C49.647 51.6935 50.7531 50.5874 52.1176 50.5874C53.482 50.5874 54.5881 51.6935 54.5881 53.058C54.5881 54.4225 53.482 55.5286 52.1176 55.5286C50.7531 55.5286 49.647 54.4225 49.647 53.058Z" fill="black"/>
<path fill-rule="evenodd" clip-rule="evenodd" d="M60.9867 44.4586C61.2527 44.7436 61.2373 45.1903 60.9523 45.4563L53.8934 52.0445L52.9302 51.0125L59.989 44.4242C60.274 44.1582 60.7207 44.1736 60.9867 44.4586Z" fill="black"/>
<path fill-rule="evenodd" clip-rule="evenodd" d="M57.0491 59.5931C56.7537 59.8475 56.308 59.8142 56.0536 59.5188L52.4066 55.2835L53.4764 54.3623L57.1234 58.5976C57.3778 58.893 57.3446 59.3387 57.0491 59.5931Z" fill="black"/>
<path fill-rule="evenodd" clip-rule="evenodd" d="M37.7969 36.7577C37.4775 36.9813 37.3999 37.4215 37.6235 37.7408L37.8934 38.1263C38.117 38.4457 38.5572 38.5233 38.8765 38.2997L42.3459 35.8704C42.6652 35.6468 42.7428 35.2066 42.5192 34.8873L42.2493 34.5018C42.0257 34.1825 41.5856 34.1049 41.2662 34.3285L37.7969 36.7577ZM36.4671 38.5506C35.7963 37.5926 36.0291 36.2721 36.9871 35.6013L40.4565 33.172C41.4145 32.5012 42.735 32.734 43.4058 33.6921L43.6757 34.0775C44.3465 35.0356 44.1137 36.356 43.1556 37.0269L39.6863 39.4561C38.7283 40.1269 37.4078 39.8941 36.737 38.9361L36.4671 38.5506Z" fill="black"/>
<path fill-rule="evenodd" clip-rule="evenodd" d="M66.3457 36.7577C66.6651 36.9813 66.7427 37.4215 66.5191 37.7408L66.2491 38.1263C66.0255 38.4457 65.5854 38.5233 65.266 38.2997L61.7967 35.8704C61.4773 35.6468 61.3997 35.2066 61.6233 34.8873L61.8933 34.5018C62.1169 34.1825 62.557 34.1049 62.8764 34.3285L66.3457 36.7577ZM67.6755 38.5506C68.3463 37.5926 68.1135 36.2721 67.1555 35.6013L63.6861 33.172C62.7281 32.5012 61.4076 32.734 60.7368 33.6921L60.4669 34.0775C59.7961 35.0356 60.0289 36.356 60.9869 37.0269L64.4563 39.4561C65.4143 40.1269 66.7348 39.8941 67.4056 38.9361L67.6755 38.5506Z" fill="black"/>
</svg>
