<svg width="109" height="38" viewBox="0 0 109 38" fill="none" xmlns="http://www.w3.org/2000/svg">
<path fill-rule="evenodd" clip-rule="evenodd" d="M19 35.625C9.81825 35.625 2.375 28.1818 2.375 19C2.375 9.81825 9.81825 2.375 19 2.375C28.1818 2.375 35.625 9.81825 35.625 19C35.625 28.1818 28.1818 35.625 19 35.625M19 0C8.5063 0 0 8.5063 0 19C0 29.4937 8.5063 38 19 38C29.4937 38 38 29.4937 38 19C38 8.5063 29.4937 0 19 0" fill="white"/>
<path fill-rule="evenodd" clip-rule="evenodd" d="M15.1621 12.1992L16.0503 13.0048L17.7736 11.2815L16.5605 10.1795C15.7891 9.47842 14.7849 9.09082 13.7428 9.09082V9.09082C11.382 9.09082 9.46777 11.0041 9.46777 13.3658V24.5112C9.46777 26.32 10.5099 28.0338 12.199 28.6789C13.834 29.303 15.5991 28.8784 16.7581 27.7108L22.7583 21.6679L20.9951 19.9047L15.2276 25.712C13.9176 27.0316 11.667 26.1063 11.6632 24.2471L11.6423 13.7629C11.6385 11.9342 13.8074 10.9709 15.1621 12.1992" fill="white"/>
<path fill-rule="evenodd" clip-rule="evenodd" d="M16.0786 23.1211L17.7895 21.4101C17.7544 21.3693 17.21 20.7594 17.0694 20.6178C16.1821 19.7305 16.3484 18.125 17.2357 17.2377L22.2146 12.2588C23.1029 11.3715 24.5412 11.3715 25.4294 12.2588C26.3167 13.1461 26.3167 14.5853 25.4294 15.4726L24.8347 16.0673L24.5716 16.3305L26.331 18.0889L26.6008 17.8191L27.1508 17.2691C29.0024 15.4175 29.0024 12.4155 27.1508 10.564C25.2993 8.71241 22.2982 8.71241 20.4467 10.564L15.501 15.5097C13.6494 17.3612 13.4822 20.5295 15.3338 22.381C15.5333 22.5796 16.0672 23.1192 16.0672 23.1192C16.0672 23.1192 16.0767 23.1211 16.0786 23.1211" fill="white"/>
<path fill-rule="evenodd" clip-rule="evenodd" d="M27.2072 20.8518L21.3144 14.959L19.5825 16.6908L25.5124 22.6207C26.3997 23.508 26.3997 24.9473 25.5124 25.8346C24.6251 26.7219 23.1859 26.7219 22.2986 25.8346L21.7039 25.2399L21.3239 24.8599L19.5645 26.6193L19.9521 27.0069L20.5021 27.5569C22.3537 29.4085 25.3557 29.4085 27.2072 27.5569C29.0588 25.7054 29.0588 22.7034 27.2072 20.8518" fill="white"/>
<path fill-rule="evenodd" clip-rule="evenodd" d="M57.0601 24.1281H54.0011L49.8211 18.4281L47.7311 20.7271V24.1281H45.1851V10.8281H47.7311V17.4591L53.7351 10.8281H56.7371L51.6261 16.4521L57.0601 24.1281Z" fill="white"/>
<path fill-rule="evenodd" clip-rule="evenodd" d="M61.6387 10.8281H71.3857V13.0511H64.1847V16.3381H70.6447V18.5611H64.1847V21.9051H71.6137V24.1281H61.6387V10.8281Z" fill="white"/>
<path fill-rule="evenodd" clip-rule="evenodd" d="M87.5546 10.8281L82.7096 19.7771V24.1281H80.1636V19.8721L75.2046 10.8281H77.7886L81.4176 17.0791L84.9896 10.8281H87.5546Z" fill="white"/>
<path fill-rule="evenodd" clip-rule="evenodd" d="M95.1741 13.535C94.4768 13.934 93.9267 14.4784 93.5211 15.169C93.1154 15.8597 92.9131 16.6225 92.9131 17.4585C92.9131 18.2945 93.1183 19.0612 93.5306 19.7575C93.9419 20.4539 94.4929 21.0049 95.1836 21.4105C95.8733 21.8162 96.6238 22.0185 97.4351 22.0185C98.2331 22.0185 98.9741 21.8162 99.6581 21.4105C100.342 21.0049 100.884 20.4539 101.283 19.7575C101.682 19.0612 101.881 18.2945 101.881 17.4585C101.881 16.6225 101.682 15.8597 101.283 15.169C100.884 14.4784 100.342 13.934 99.6581 13.535C98.9741 13.136 98.2331 12.9365 97.4351 12.9365C96.6238 12.9365 95.8704 13.136 95.1741 13.535M100.998 11.5497C102.081 12.1454 102.933 12.9624 103.553 14.0007C104.173 15.0391 104.484 16.1924 104.484 17.4587C104.484 18.7251 104.173 19.8812 103.553 20.9262C102.933 21.9712 102.081 22.7977 100.998 23.4057C99.9146 24.0137 98.7147 24.3177 97.3971 24.3177C96.0794 24.3177 94.8796 24.0137 93.7966 23.4057C92.7136 22.7977 91.8614 21.9712 91.2411 20.9262C90.6207 19.8812 90.3101 18.7251 90.3101 17.4587C90.3101 16.1924 90.6207 15.0391 91.2411 14.0007C91.8614 12.9624 92.7136 12.1454 93.7966 11.5497C94.8796 10.9541 96.0794 10.6567 97.3971 10.6567C98.7147 10.6567 99.9146 10.9541 100.998 11.5497" fill="white"/>
<path fill-rule="evenodd" clip-rule="evenodd" d="M70.9619 31.0887H80.3403V28.8657H70.9619V31.0887Z" fill="white"/>
<path fill-rule="evenodd" clip-rule="evenodd" d="M106.176 11.7684H106.626C106.771 11.7684 106.881 11.7371 106.957 11.6744C107.033 11.6117 107.071 11.5186 107.071 11.3951C107.071 11.2735 107.033 11.1823 106.957 11.1215C106.881 11.0607 106.771 11.0303 106.626 11.0303H106.176V11.7684ZM107.042 12.6918L106.697 12.1019C106.682 12.1038 106.658 12.1047 106.626 12.1047H106.176V12.6918H105.794V10.6968H106.626C106.885 10.6968 107.084 10.7567 107.225 10.8764C107.365 10.9961 107.436 11.1652 107.436 11.3837C107.436 11.5395 107.402 11.6725 107.334 11.7827C107.266 11.8929 107.169 11.9755 107.039 12.0306L107.478 12.6918H107.042Z" fill="white"/>
<path fill-rule="evenodd" clip-rule="evenodd" d="M106.522 13.7585C107.648 13.7585 108.561 12.8455 108.561 11.7198C108.561 10.594 107.648 9.68106 106.522 9.68106C105.397 9.68106 104.484 10.5938 104.484 11.7198C104.484 12.8457 105.397 13.7585 106.522 13.7585ZM106.522 9.91837C107.517 9.91837 108.323 10.7249 108.323 11.7196C108.323 12.7142 107.517 13.5208 106.522 13.5208C105.528 13.5208 104.722 12.7144 104.722 11.7196C104.722 10.7247 105.528 9.91837 106.522 9.91837Z" fill="white"/>
</svg>
