<svg xmlns="http://www.w3.org/2000/svg" width="107" height="38" viewBox="0 0 107 38">
    <g fill="#111" fill-rule="evenodd">
        <path d="M18.609 34.891c-8.993 0-16.283-7.29-16.283-16.282 0-8.993 7.29-16.283 16.283-16.283 8.992 0 16.282 7.29 16.282 16.283 0 8.992-7.29 16.282-16.282 16.282m0-34.891C8.33 0 0 8.331 0 18.609c0 10.277 8.331 18.608 18.609 18.608 10.277 0 18.608-8.33 18.608-18.608S28.887 0 18.61 0"/>
        <path d="M14.85 11.948l.87.789 1.688-1.688-1.188-1.08a4.102 4.102 0 0 0-2.76-1.066 4.187 4.187 0 0 0-4.187 4.187v10.916c0 1.772 1.02 3.45 2.675 4.082a4.17 4.17 0 0 0 4.465-.948l5.877-5.919-1.727-1.726-5.649 5.687c-1.283 1.293-3.487.386-3.49-1.434l-.021-10.269c-.004-1.79 2.12-2.734 3.447-1.531"/>
        <path d="M15.747 22.645l1.676-1.676c-.034-.04-.568-.637-.705-.776-.87-.869-.706-2.441.163-3.31l4.876-4.877a2.227 2.227 0 0 1 3.149 3.148l-.583.582-.258.258 1.724 1.722.264-.264.539-.539a4.644 4.644 0 0 0-6.567-6.567l-4.843 4.844c-1.814 1.814-1.978 4.917-.164 6.73.195.194.718.723.718.723l.011.002"/>
        <path d="M26.647 20.422l-5.771-5.771-1.697 1.696 5.808 5.808a2.226 2.226 0 0 1-3.148 3.148l-.582-.583-.372-.372-1.723 1.723.38.38.538.538a4.644 4.644 0 0 0 6.567-6.567M55.885 23.631h-2.996l-4.094-5.583-2.047 2.252v3.331h-2.494V10.605h2.494v6.494l5.88-6.494h2.94l-5.005 5.508zM60.37 10.605h9.546v2.177h-7.053v3.22h6.327v2.177h-6.327v3.275h7.276v2.177h-9.77zM85.751 10.605l-4.745 8.765v4.261h-2.493v-4.168l-4.857-8.858h2.53l3.555 6.122 3.498-6.122zM93.214 13.257a4.352 4.352 0 0 0-1.619 1.6A4.345 4.345 0 0 0 91 17.099c0 .82.2 1.57.604 2.252a4.5 4.5 0 0 0 1.62 1.619c.675.397 1.41.595 2.204.595.782 0 1.508-.198 2.178-.595.67-.397 1.2-.937 1.59-1.619a4.45 4.45 0 0 0 .587-2.252 4.401 4.401 0 0 0-2.177-3.842 4.246 4.246 0 0 0-2.178-.587c-.794 0-1.532.196-2.214.587m5.704-1.945a6.516 6.516 0 0 1 2.502 2.4c.608 1.018.912 2.147.912 3.387 0 1.24-.304 2.373-.912 3.396a6.627 6.627 0 0 1-2.502 2.429c-1.061.595-2.236.893-3.527.893-1.29 0-2.465-.298-3.526-.893a6.627 6.627 0 0 1-2.503-2.429c-.608-1.023-.912-2.155-.912-3.396 0-1.24.304-2.37.912-3.386a6.516 6.516 0 0 1 2.503-2.401c1.06-.583 2.236-.875 3.526-.875 1.29 0 2.466.292 3.527.875M69.5 30.448h9.186v-2.177H69.5zM102.336 10.44h1.594v.332h-.609v1.621h-.377v-1.621h-.608zM104.195 10.44h.427l.647 1.258.642-1.259h.428v1.954h-.344v-1.4l-.608 1.2h-.24l-.612-1.2v1.4h-.34z"/>
    </g>
</svg>
