<svg width="264" height="104" viewBox="0 0 264 104" fill="none" xmlns="http://www.w3.org/2000/svg">
<rect width="264" height="104" rx="12" fill="#F2F2F2" fill-opacity="0.5"/>
<path d="M105.222 77.2C106.454 77.2 107.406 77.494 108.078 78.082C108.759 78.67 109.1 79.5007 109.1 80.574C109.1 81.694 108.759 82.5667 108.078 83.192C107.406 83.808 106.454 84.116 105.222 84.116H103.08V87H101.204V77.2H105.222ZM105.124 82.464C105.833 82.464 106.375 82.31 106.748 82.002C107.131 81.694 107.322 81.2367 107.322 80.63C107.322 80.0327 107.131 79.5847 106.748 79.286C106.375 78.9873 105.833 78.838 105.124 78.838H103.08V82.464H105.124ZM115.005 87V86.09C114.744 86.4167 114.408 86.664 113.997 86.832C113.587 87 113.115 87.084 112.583 87.084C112.061 87.084 111.599 86.986 111.197 86.79C110.805 86.5847 110.502 86.3047 110.287 85.95C110.073 85.5953 109.965 85.1987 109.965 84.76C109.965 84.06 110.213 83.514 110.707 83.122C111.202 82.7207 111.902 82.5153 112.807 82.506H114.991V82.31C114.991 81.8713 114.847 81.5307 114.557 81.288C114.268 81.0453 113.848 80.924 113.297 80.924C112.588 80.924 111.846 81.1573 111.071 81.624L110.413 80.364C111.001 80.0373 111.533 79.804 112.009 79.664C112.495 79.5147 113.059 79.44 113.703 79.44C114.674 79.44 115.425 79.6733 115.957 80.14C116.499 80.6067 116.774 81.26 116.783 82.1L116.797 87H115.005ZM113.017 85.684C113.54 85.684 113.988 85.5627 114.361 85.32C114.735 85.068 114.945 84.76 114.991 84.396V83.724H113.101C112.616 83.724 112.257 83.7987 112.023 83.948C111.799 84.088 111.687 84.3213 111.687 84.648C111.687 84.9653 111.804 85.2173 112.037 85.404C112.28 85.5907 112.607 85.684 113.017 85.684ZM121.854 87.938C121.62 88.554 121.284 89.016 120.846 89.324C120.416 89.6413 119.903 89.8 119.306 89.8C118.942 89.8 118.61 89.744 118.312 89.632C118.022 89.5293 117.733 89.3613 117.444 89.128L118.228 87.742C118.405 87.8727 118.568 87.966 118.718 88.022C118.867 88.0873 119.026 88.12 119.194 88.12C119.688 88.12 120.052 87.868 120.286 87.364L120.51 86.874L117.416 79.51H119.306L121.434 84.956L123.38 79.51H125.214L121.854 87.938ZM136.145 79.44C136.995 79.44 137.662 79.7013 138.147 80.224C138.633 80.7373 138.875 81.4373 138.875 82.324V87H137.041V82.856C137.041 82.324 136.892 81.9087 136.593 81.61C136.304 81.302 135.907 81.148 135.403 81.148C134.825 81.1667 134.363 81.3767 134.017 81.778C133.681 82.1793 133.513 82.688 133.513 83.304V87H131.679V82.856C131.679 82.324 131.535 81.9087 131.245 81.61C130.956 81.302 130.559 81.148 130.055 81.148C129.467 81.1667 129.001 81.3767 128.655 81.778C128.319 82.1793 128.151 82.688 128.151 83.304V87H126.331V79.51H128.151V80.896C128.646 79.944 129.523 79.4587 130.783 79.44C131.437 79.44 131.983 79.5987 132.421 79.916C132.869 80.224 133.182 80.6627 133.359 81.232C133.835 80.056 134.764 79.4587 136.145 79.44ZM144.027 79.454C145.222 79.454 146.118 79.7947 146.715 80.476C147.322 81.1573 147.625 82.114 147.625 83.346C147.625 83.5887 147.621 83.7707 147.611 83.892H142.081C142.203 84.424 142.45 84.844 142.823 85.152C143.206 85.4507 143.673 85.6 144.223 85.6C144.606 85.6 144.97 85.53 145.315 85.39C145.67 85.2407 145.978 85.0307 146.239 84.76L147.219 85.782C146.846 86.1927 146.389 86.51 145.847 86.734C145.315 86.958 144.723 87.07 144.069 87.07C143.304 87.07 142.627 86.9113 142.039 86.594C141.461 86.2767 141.013 85.8333 140.695 85.264C140.378 84.6853 140.219 84.0227 140.219 83.276C140.219 82.5293 140.378 81.8667 140.695 81.288C141.022 80.7093 141.475 80.2613 142.053 79.944C142.632 79.6173 143.29 79.454 144.027 79.454ZM145.959 82.674C145.941 82.1233 145.759 81.6847 145.413 81.358C145.068 81.0313 144.611 80.868 144.041 80.868C143.509 80.868 143.061 81.0313 142.697 81.358C142.343 81.6753 142.123 82.114 142.039 82.674H145.959ZM153.699 79.44C154.557 79.44 155.234 79.7013 155.729 80.224C156.223 80.7373 156.471 81.4373 156.471 82.324V87H154.637V82.856C154.637 82.3333 154.487 81.9227 154.189 81.624C153.89 81.316 153.484 81.162 152.971 81.162C152.364 81.1713 151.883 81.3767 151.529 81.778C151.183 82.1793 151.011 82.6927 151.011 83.318V87H149.191V79.51H151.011V80.91C151.524 79.9487 152.42 79.4587 153.699 79.44ZM162.897 86.538C162.3 86.902 161.674 87.084 161.021 87.084C160.377 87.084 159.85 86.8973 159.439 86.524C159.028 86.1413 158.823 85.5813 158.823 84.844V81.148H157.773L157.759 79.818H158.823V77.76H160.629V79.818H162.771V81.148H160.629V84.522C160.629 84.8673 160.694 85.1147 160.825 85.264C160.956 85.404 161.152 85.474 161.413 85.474C161.693 85.474 162.048 85.3713 162.477 85.166L162.897 86.538ZM174.925 80.028C174.58 79.6267 174.169 79.314 173.693 79.09C173.226 78.866 172.75 78.754 172.265 78.754C171.658 78.754 171.103 78.8987 170.599 79.188C170.095 79.4773 169.698 79.8787 169.409 80.392C169.12 80.896 168.975 81.4513 168.975 82.058C168.975 82.6647 169.12 83.2247 169.409 83.738C169.698 84.242 170.095 84.6433 170.599 84.942C171.103 85.2313 171.658 85.376 172.265 85.376C172.732 85.376 173.198 85.2733 173.665 85.068C174.141 84.8627 174.561 84.578 174.925 84.214L176.031 85.446C175.518 85.9687 174.92 86.384 174.239 86.692C173.558 86.9907 172.867 87.14 172.167 87.14C171.224 87.14 170.361 86.916 169.577 86.468C168.793 86.02 168.177 85.4133 167.729 84.648C167.281 83.8733 167.057 83.0193 167.057 82.086C167.057 81.1527 167.286 80.3033 167.743 79.538C168.2 78.7727 168.821 78.1707 169.605 77.732C170.398 77.2933 171.276 77.074 172.237 77.074C172.937 77.074 173.623 77.214 174.295 77.494C174.967 77.774 175.541 78.1613 176.017 78.656L174.925 80.028ZM180.59 79.454C181.364 79.454 182.046 79.6127 182.634 79.93C183.231 80.2473 183.693 80.6953 184.02 81.274C184.356 81.8433 184.524 82.5013 184.524 83.248C184.524 84.004 184.356 84.6713 184.02 85.25C183.693 85.8287 183.231 86.2767 182.634 86.594C182.046 86.9113 181.364 87.07 180.59 87.07C179.806 87.07 179.115 86.9113 178.518 86.594C177.92 86.2767 177.454 85.8287 177.118 85.25C176.791 84.6713 176.628 84.004 176.628 83.248C176.628 82.5013 176.791 81.8433 177.118 81.274C177.454 80.6953 177.92 80.2473 178.518 79.93C179.115 79.6127 179.806 79.454 180.59 79.454ZM180.59 81.008C179.955 81.008 179.442 81.218 179.05 81.638C178.658 82.058 178.462 82.604 178.462 83.276C178.462 83.948 178.658 84.494 179.05 84.914C179.442 85.334 179.955 85.544 180.59 85.544C181.206 85.544 181.71 85.334 182.102 84.914C182.494 84.494 182.69 83.948 182.69 83.276C182.69 82.604 182.494 82.058 182.102 81.638C181.71 81.218 181.206 81.008 180.59 81.008ZM195.919 79.44C196.768 79.44 197.435 79.7013 197.921 80.224C198.406 80.7373 198.649 81.4373 198.649 82.324V87H196.815V82.856C196.815 82.324 196.665 81.9087 196.367 81.61C196.077 81.302 195.681 81.148 195.177 81.148C194.598 81.1667 194.136 81.3767 193.791 81.778C193.455 82.1793 193.287 82.688 193.287 83.304V87H191.453V82.856C191.453 82.324 191.308 81.9087 191.019 81.61C190.729 81.302 190.333 81.148 189.829 81.148C189.241 81.1667 188.774 81.3767 188.429 81.778C188.093 82.1793 187.925 82.688 187.925 83.304V87H186.105V79.51H187.925V80.896C188.419 79.944 189.297 79.4587 190.557 79.44C191.21 79.44 191.756 79.5987 192.195 79.916C192.643 80.224 192.955 80.6627 193.133 81.232C193.609 80.056 194.537 79.4587 195.919 79.44ZM205.089 79.454C205.789 79.454 206.405 79.6173 206.937 79.944C207.478 80.2613 207.894 80.7093 208.183 81.288C208.482 81.8667 208.631 82.534 208.631 83.29C208.631 84.0367 208.486 84.6947 208.197 85.264C207.908 85.8333 207.497 86.2767 206.965 86.594C206.433 86.9113 205.817 87.07 205.117 87.07C204.557 87.07 204.062 86.9627 203.633 86.748C203.204 86.524 202.849 86.202 202.569 85.782V89.716H200.749V79.51H202.569V80.742C202.84 80.322 203.185 80.0047 203.605 79.79C204.034 79.566 204.529 79.454 205.089 79.454ZM204.683 85.502C205.299 85.502 205.803 85.292 206.195 84.872C206.587 84.4427 206.783 83.8967 206.783 83.234C206.783 82.5713 206.587 82.03 206.195 81.61C205.803 81.19 205.299 80.98 204.683 80.98C204.058 80.98 203.549 81.19 203.157 81.61C202.765 82.03 202.569 82.5713 202.569 83.234C202.569 83.906 202.765 84.452 203.157 84.872C203.549 85.292 204.058 85.502 204.683 85.502ZM210.278 76.612H212.098V87H210.278V76.612ZM217.555 79.454C218.749 79.454 219.645 79.7947 220.243 80.476C220.849 81.1573 221.153 82.114 221.153 83.346C221.153 83.5887 221.148 83.7707 221.139 83.892H215.609C215.73 84.424 215.977 84.844 216.351 85.152C216.733 85.4507 217.2 85.6 217.751 85.6C218.133 85.6 218.497 85.53 218.843 85.39C219.197 85.2407 219.505 85.0307 219.767 84.76L220.747 85.782C220.373 86.1927 219.916 86.51 219.375 86.734C218.843 86.958 218.25 87.07 217.597 87.07C216.831 87.07 216.155 86.9113 215.567 86.594C214.988 86.2767 214.54 85.8333 214.223 85.264C213.905 84.6853 213.747 84.0227 213.747 83.276C213.747 82.5293 213.905 81.8667 214.223 81.288C214.549 80.7093 215.002 80.2613 215.581 79.944C216.159 79.6173 216.817 79.454 217.555 79.454ZM219.487 82.674C219.468 82.1233 219.286 81.6847 218.941 81.358C218.595 81.0313 218.138 80.868 217.569 80.868C217.037 80.868 216.589 81.0313 216.225 81.358C215.87 81.6753 215.651 82.114 215.567 82.674H219.487ZM227.1 86.538C226.503 86.902 225.877 87.084 225.224 87.084C224.58 87.084 224.053 86.8973 223.642 86.524C223.231 86.1413 223.026 85.5813 223.026 84.844V81.148H221.976L221.962 79.818H223.026V77.76H224.832V79.818H226.974V81.148H224.832V84.522C224.832 84.8673 224.897 85.1147 225.028 85.264C225.159 85.404 225.355 85.474 225.616 85.474C225.896 85.474 226.251 85.3713 226.68 85.166L227.1 86.538ZM231.582 79.454C232.777 79.454 233.673 79.7947 234.27 80.476C234.877 81.1573 235.18 82.114 235.18 83.346C235.18 83.5887 235.176 83.7707 235.166 83.892H229.636C229.758 84.424 230.005 84.844 230.378 85.152C230.761 85.4507 231.228 85.6 231.778 85.6C232.161 85.6 232.525 85.53 232.87 85.39C233.225 85.2407 233.533 85.0307 233.794 84.76L234.774 85.782C234.401 86.1927 233.944 86.51 233.402 86.734C232.87 86.958 232.278 87.07 231.624 87.07C230.859 87.07 230.182 86.9113 229.594 86.594C229.016 86.2767 228.568 85.8333 228.25 85.264C227.933 84.6853 227.774 84.0227 227.774 83.276C227.774 82.5293 227.933 81.8667 228.25 81.288C228.577 80.7093 229.03 80.2613 229.608 79.944C230.187 79.6173 230.845 79.454 231.582 79.454ZM233.514 82.674C233.496 82.1233 233.314 81.6847 232.968 81.358C232.623 81.0313 232.166 80.868 231.596 80.868C231.064 80.868 230.616 81.0313 230.252 81.358C229.898 81.6753 229.678 82.114 229.594 82.674H233.514Z" fill="black"/>
<path d="M106.792 25.208C106.584 25.392 106.344 25.552 106.072 25.688C105.8 25.816 105.508 25.912 105.196 25.976C104.892 26.04 104.58 26.072 104.26 26.072C103.556 26.072 102.924 25.924 102.364 25.628C101.812 25.324 101.376 24.912 101.056 24.392C100.736 23.864 100.576 23.268 100.576 22.604C100.576 21.94 100.732 21.348 101.044 20.828C101.364 20.308 101.8 19.896 102.352 19.592C102.904 19.288 103.528 19.136 104.224 19.136C104.776 19.136 105.272 19.22 105.712 19.388C106.16 19.556 106.536 19.808 106.84 20.144L106.288 20.708C106.008 20.428 105.696 20.224 105.352 20.096C105.016 19.96 104.644 19.892 104.236 19.892C103.708 19.892 103.232 20.012 102.808 20.252C102.384 20.484 102.048 20.804 101.8 21.212C101.56 21.62 101.44 22.084 101.44 22.604C101.44 23.124 101.56 23.592 101.8 24.008C102.048 24.416 102.384 24.736 102.808 24.968C103.24 25.2 103.728 25.316 104.272 25.316C104.664 25.316 105.028 25.256 105.364 25.136C105.708 25.016 106.02 24.828 106.3 24.572L106.792 25.208ZM105.964 25.208V22.604H106.792V25.208H105.964ZM109.088 26V19.22H111.716C112.308 19.22 112.812 19.312 113.228 19.496C113.652 19.68 113.98 19.948 114.212 20.3C114.444 20.644 114.56 21.064 114.56 21.56C114.56 22.04 114.444 22.456 114.212 22.808C113.98 23.16 113.652 23.428 113.228 23.612C112.812 23.796 112.308 23.888 111.716 23.888H109.568L109.952 23.504V26H109.088ZM113.732 26L111.956 23.54H112.904L114.668 26H113.732ZM109.952 23.588L109.616 23.18H111.68C112.336 23.18 112.836 23.04 113.18 22.76C113.524 22.472 113.696 22.072 113.696 21.56C113.696 21.04 113.524 20.64 113.18 20.36C112.836 20.08 112.336 19.94 111.68 19.94H109.616L109.952 19.532V23.588ZM119.528 26.072C118.84 26.072 118.22 25.924 117.668 25.628C117.116 25.324 116.68 24.912 116.36 24.392C116.048 23.864 115.892 23.268 115.892 22.604C115.892 21.94 116.048 21.348 116.36 20.828C116.68 20.308 117.116 19.896 117.668 19.592C118.22 19.288 118.84 19.136 119.528 19.136C120.224 19.136 120.844 19.288 121.388 19.592C121.94 19.896 122.372 20.308 122.684 20.828C123.004 21.348 123.164 21.94 123.164 22.604C123.164 23.268 123.004 23.864 122.684 24.392C122.372 24.912 121.94 25.324 121.388 25.628C120.844 25.924 120.224 26.072 119.528 26.072ZM119.528 25.328C120.064 25.328 120.54 25.212 120.956 24.98C121.372 24.74 121.7 24.416 121.94 24.008C122.18 23.592 122.3 23.124 122.3 22.604C122.3 22.084 122.176 21.62 121.928 21.212C121.688 20.804 121.36 20.484 120.944 20.252C120.536 20.012 120.064 19.892 119.528 19.892C119 19.892 118.524 20.012 118.1 20.252C117.684 20.484 117.356 20.804 117.116 21.212C116.876 21.62 116.756 22.084 116.756 22.604C116.756 23.124 116.876 23.592 117.116 24.008C117.356 24.416 117.684 24.74 118.1 24.98C118.524 25.212 119 25.328 119.528 25.328ZM127.942 26.072C127.254 26.072 126.634 25.924 126.082 25.628C125.538 25.324 125.106 24.912 124.786 24.392C124.474 23.864 124.318 23.268 124.318 22.604C124.318 21.94 124.474 21.348 124.786 20.828C125.106 20.308 125.538 19.896 126.082 19.592C126.634 19.288 127.254 19.136 127.942 19.136C128.486 19.136 128.974 19.22 129.406 19.388C129.838 19.556 130.21 19.808 130.522 20.144L129.97 20.708C129.698 20.428 129.394 20.224 129.058 20.096C128.722 19.96 128.358 19.892 127.966 19.892C127.438 19.892 126.962 20.012 126.538 20.252C126.114 20.484 125.782 20.804 125.542 21.212C125.302 21.62 125.182 22.084 125.182 22.604C125.182 23.124 125.302 23.592 125.542 24.008C125.782 24.416 126.114 24.736 126.538 24.968C126.962 25.2 127.438 25.316 127.966 25.316C128.358 25.316 128.722 25.252 129.058 25.124C129.394 24.996 129.698 24.788 129.97 24.5L130.522 25.064C130.21 25.4 129.834 25.652 129.394 25.82C128.962 25.988 128.478 26.072 127.942 26.072ZM132.941 22.208H136.589V22.916H132.941V22.208ZM133.085 25.28H137.153V26H132.221V19.22H137.009V19.94H133.085V25.28ZM139.018 26V19.22H141.646C142.238 19.22 142.742 19.312 143.158 19.496C143.582 19.68 143.91 19.948 144.142 20.3C144.374 20.644 144.49 21.064 144.49 21.56C144.49 22.04 144.374 22.456 144.142 22.808C143.91 23.16 143.582 23.428 143.158 23.612C142.742 23.796 142.238 23.888 141.646 23.888H139.498L139.882 23.504V26H139.018ZM143.662 26L141.886 23.54H142.834L144.598 26H143.662ZM139.882 23.588L139.546 23.18H141.61C142.266 23.18 142.766 23.04 143.11 22.76C143.454 22.472 143.626 22.072 143.626 21.56C143.626 21.04 143.454 20.64 143.11 20.36C142.766 20.08 142.266 19.94 141.61 19.94H139.546L139.882 19.532V23.588ZM148.033 26V23.468L148.201 24.044L145.225 19.22H146.149L148.705 23.336H148.249L150.805 19.22H151.693L148.729 24.044L148.885 23.468V26H148.033ZM160.686 24.152C160.686 24.528 160.582 24.86 160.374 25.148C160.174 25.436 159.878 25.664 159.486 25.832C159.102 25.992 158.626 26.072 158.058 26.072C157.538 26.072 157.038 25.992 156.558 25.832C156.086 25.672 155.714 25.468 155.442 25.22L155.802 24.548C156.05 24.78 156.378 24.972 156.786 25.124C157.202 25.268 157.634 25.34 158.082 25.34C158.706 25.34 159.15 25.232 159.414 25.016C159.686 24.792 159.822 24.528 159.822 24.224C159.822 23.968 159.746 23.768 159.594 23.624C159.442 23.472 159.242 23.352 158.994 23.264C158.746 23.168 158.474 23.088 158.178 23.024C157.882 22.96 157.586 22.888 157.29 22.808C156.994 22.728 156.718 22.62 156.462 22.484C156.214 22.348 156.014 22.168 155.862 21.944C155.718 21.72 155.646 21.424 155.646 21.056C155.646 20.688 155.746 20.36 155.946 20.072C156.146 19.784 156.438 19.556 156.822 19.388C157.206 19.22 157.678 19.136 158.238 19.136C158.638 19.136 159.03 19.188 159.414 19.292C159.806 19.388 160.142 19.536 160.422 19.736L160.11 20.432C159.822 20.232 159.514 20.092 159.186 20.012C158.858 19.924 158.534 19.88 158.214 19.88C157.622 19.88 157.186 19.992 156.906 20.216C156.634 20.432 156.498 20.7 156.498 21.02C156.498 21.276 156.574 21.48 156.726 21.632C156.878 21.776 157.078 21.896 157.326 21.992C157.574 22.08 157.846 22.156 158.142 22.22C158.446 22.284 158.746 22.356 159.042 22.436C159.338 22.516 159.61 22.624 159.858 22.76C160.106 22.888 160.306 23.064 160.458 23.288C160.61 23.512 160.686 23.8 160.686 24.152ZM163.526 26V19.94H161.138V19.22H166.778V19.94H164.39V26H163.526ZM170.915 26.072C170.227 26.072 169.607 25.924 169.055 25.628C168.503 25.324 168.067 24.912 167.747 24.392C167.435 23.864 167.279 23.268 167.279 22.604C167.279 21.94 167.435 21.348 167.747 20.828C168.067 20.308 168.503 19.896 169.055 19.592C169.607 19.288 170.227 19.136 170.915 19.136C171.611 19.136 172.231 19.288 172.775 19.592C173.327 19.896 173.759 20.308 174.071 20.828C174.391 21.348 174.551 21.94 174.551 22.604C174.551 23.268 174.391 23.864 174.071 24.392C173.759 24.912 173.327 25.324 172.775 25.628C172.231 25.924 171.611 26.072 170.915 26.072ZM170.915 25.328C171.451 25.328 171.927 25.212 172.343 24.98C172.759 24.74 173.087 24.416 173.327 24.008C173.567 23.592 173.687 23.124 173.687 22.604C173.687 22.084 173.563 21.62 173.315 21.212C173.075 20.804 172.747 20.484 172.331 20.252C171.923 20.012 171.451 19.892 170.915 19.892C170.387 19.892 169.911 20.012 169.487 20.252C169.071 20.484 168.743 20.804 168.503 21.212C168.263 21.62 168.143 22.084 168.143 22.604C168.143 23.124 168.263 23.592 168.503 24.008C168.743 24.416 169.071 24.74 169.487 24.98C169.911 25.212 170.387 25.328 170.915 25.328ZM176.389 26V19.22H179.017C179.609 19.22 180.113 19.312 180.529 19.496C180.953 19.68 181.281 19.948 181.513 20.3C181.745 20.644 181.861 21.064 181.861 21.56C181.861 22.04 181.745 22.456 181.513 22.808C181.281 23.16 180.953 23.428 180.529 23.612C180.113 23.796 179.609 23.888 179.017 23.888H176.869L177.253 23.504V26H176.389ZM181.033 26L179.257 23.54H180.205L181.969 26H181.033ZM177.253 23.588L176.917 23.18H178.981C179.637 23.18 180.137 23.04 180.481 22.76C180.825 22.472 180.997 22.072 180.997 21.56C180.997 21.04 180.825 20.64 180.481 20.36C180.137 20.08 179.637 19.94 178.981 19.94H176.917L177.253 19.532V23.588ZM184.597 22.208H188.245V22.916H184.597V22.208ZM184.741 25.28H188.809V26H183.877V19.22H188.665V19.94H184.741V25.28Z" fill="#333333" fill-opacity="0.5"/>
<path d="M118.63 54.7248C118.63 56.5248 118.02 57.9848 116.8 59.1048C115.6 60.2048 114.01 60.8948 112.03 61.1748V65.6148H108.04V61.1448C106.62 60.9248 105.25 60.5348 103.93 59.9748C102.63 59.4148 101.48 58.7148 100.48 57.8748L102.61 53.5848C103.67 54.5248 104.92 55.2948 106.36 55.8948C107.82 56.4948 109.11 56.7948 110.23 56.7948C111.05 56.7948 111.69 56.6448 112.15 56.3448C112.63 56.0448 112.87 55.6048 112.87 55.0248C112.87 54.5448 112.69 54.1448 112.33 53.8248C111.99 53.5048 111.55 53.2548 111.01 53.0748C110.49 52.8748 109.75 52.6448 108.79 52.3848C107.35 51.9848 106.16 51.5848 105.22 51.1848C104.28 50.7648 103.47 50.1448 102.79 49.3248C102.13 48.4848 101.8 47.3748 101.8 45.9948C101.8 44.3148 102.35 42.9248 103.45 41.8248C104.57 40.7048 106.1 39.9948 108.04 39.6948V35.4348H112.03V39.6348C113.23 39.7748 114.4 40.0448 115.54 40.4448C116.68 40.8248 117.7 41.3048 118.6 41.8848L116.53 46.2648C115.41 45.6048 114.21 45.0648 112.93 44.6448C111.67 44.2248 110.61 44.0148 109.75 44.0148C109.07 44.0148 108.53 44.1448 108.13 44.4048C107.75 44.6448 107.56 45.0048 107.56 45.4848C107.56 45.9448 107.73 46.3348 108.07 46.6548C108.41 46.9548 108.83 47.2048 109.33 47.4048C109.83 47.5848 110.57 47.8248 111.55 48.1248C113.01 48.5448 114.21 48.9648 115.15 49.3848C116.11 49.8048 116.93 50.4548 117.61 51.3348C118.29 52.1948 118.63 53.3248 118.63 54.7248ZM143.205 56.5548V60.9648H127.185L127.155 57.3348L134.805 49.4748C135.405 48.8548 135.895 48.2348 136.275 47.6148C136.655 46.9948 136.845 46.4648 136.845 46.0248C136.845 45.4448 136.635 45.0048 136.215 44.7048C135.795 44.3848 135.205 44.2248 134.445 44.2248C133.605 44.2248 132.665 44.4648 131.625 44.9448C130.605 45.4048 129.615 46.0548 128.655 46.8948L126.555 42.8448C129.455 40.7448 132.365 39.6948 135.285 39.6948C136.685 39.6948 137.935 39.9248 139.035 40.3848C140.155 40.8448 141.025 41.4948 141.645 42.3348C142.285 43.1748 142.605 44.1348 142.605 45.2148C142.605 46.2948 142.245 47.4148 141.525 48.5748C140.825 49.7148 139.825 50.9348 138.525 52.2348L134.235 56.5548H143.205ZM154.799 39.7548C157.779 39.7548 160.069 40.6748 161.669 42.5148C163.289 44.3548 164.099 46.9948 164.099 50.4348C164.099 53.8748 163.289 56.5248 161.669 58.3848C160.069 60.2248 157.779 61.1448 154.799 61.1448C151.779 61.1448 149.459 60.2248 147.839 58.3848C146.239 56.5248 145.439 53.8748 145.439 50.4348C145.439 46.9948 146.239 44.3548 147.839 42.5148C149.459 40.6748 151.779 39.7548 154.799 39.7548ZM154.799 43.8348C153.479 43.8348 152.529 44.3548 151.949 45.3948C151.369 46.4148 151.079 48.0948 151.079 50.4348C151.079 52.7948 151.369 54.4948 151.949 55.5348C152.529 56.5548 153.479 57.0648 154.799 57.0648C156.079 57.0648 157.009 56.5448 157.589 55.5048C158.189 54.4648 158.489 52.7748 158.489 50.4348C158.489 48.0948 158.189 46.4148 157.589 45.3948C157.009 44.3548 156.079 43.8348 154.799 43.8348ZM168.963 56.0148C169.723 56.0148 170.343 56.2548 170.823 56.7348C171.303 57.2148 171.543 57.8348 171.543 58.5948C171.543 59.3548 171.303 59.9848 170.823 60.4848C170.343 60.9648 169.723 61.2048 168.963 61.2048C168.223 61.2048 167.613 60.9648 167.133 60.4848C166.653 59.9848 166.413 59.3548 166.413 58.5948C166.413 57.8348 166.643 57.2148 167.103 56.7348C167.583 56.2548 168.203 56.0148 168.963 56.0148ZM181.716 39.6948C183.976 39.6948 185.776 40.2148 187.116 41.2548C188.456 42.2748 189.126 43.6548 189.126 45.3948C189.126 46.2748 188.896 47.1048 188.436 47.8848C187.996 48.6448 187.396 49.2548 186.636 49.7148C187.736 50.2148 188.606 50.9448 189.246 51.9048C189.886 52.8448 190.206 53.8948 190.206 55.0548C190.206 56.2948 189.856 57.3848 189.156 58.3248C188.476 59.2448 187.496 59.9548 186.216 60.4548C184.936 60.9548 183.446 61.2048 181.746 61.2048C180.046 61.2048 178.556 60.9548 177.276 60.4548C176.016 59.9548 175.036 59.2548 174.336 58.3548C173.636 57.4348 173.286 56.3648 173.286 55.1448C173.286 53.9648 173.636 52.8948 174.336 51.9348C175.036 50.9548 175.966 50.2148 177.126 49.7148C176.286 49.2148 175.616 48.5648 175.116 47.7648C174.616 46.9648 174.366 46.1248 174.366 45.2448C174.366 44.1248 174.666 43.1448 175.266 42.3048C175.866 41.4648 176.716 40.8248 177.816 40.3848C178.936 39.9248 180.236 39.6948 181.716 39.6948ZM181.746 43.3848C180.846 43.3848 180.146 43.5848 179.646 43.9848C179.166 44.3848 178.926 44.9548 178.926 45.6948C178.926 46.4148 179.166 46.9748 179.646 47.3748C180.146 47.7548 180.846 47.9448 181.746 47.9448C182.666 47.9448 183.366 47.7548 183.846 47.3748C184.326 46.9748 184.566 46.4148 184.566 45.6948C184.566 44.9548 184.326 44.3848 183.846 43.9848C183.366 43.5848 182.666 43.3848 181.746 43.3848ZM181.746 51.9648C180.686 51.9648 179.866 52.1948 179.286 52.6548C178.726 53.0948 178.446 53.7348 178.446 54.5748C178.446 55.4148 178.726 56.0648 179.286 56.5248C179.866 56.9648 180.686 57.1848 181.746 57.1848C182.806 57.1848 183.626 56.9648 184.206 56.5248C184.786 56.0648 185.076 55.4148 185.076 54.5748C185.076 53.7348 184.786 53.0948 184.206 52.6548C183.626 52.1948 182.806 51.9648 181.746 51.9648ZM194.732 55.6848C195.332 56.1248 196.002 56.4648 196.742 56.7048C197.482 56.9248 198.252 57.0348 199.052 57.0348C200.652 57.0348 201.862 56.5548 202.682 55.5948C203.502 54.6148 203.892 53.2448 203.852 51.4848C202.792 53.0048 201.162 53.7648 198.962 53.7648C197.622 53.7648 196.452 53.4848 195.452 52.9248C194.452 52.3448 193.672 51.5448 193.112 50.5248C192.572 49.4848 192.302 48.2848 192.302 46.9248C192.302 45.4648 192.622 44.1948 193.262 43.1148C193.902 42.0148 194.802 41.1748 195.962 40.5948C197.122 39.9948 198.472 39.6948 200.012 39.6948C201.852 39.6948 203.442 40.1148 204.782 40.9548C206.122 41.7948 207.152 42.9948 207.872 44.5548C208.592 46.1148 208.952 47.9648 208.952 50.1048C208.952 52.3248 208.552 54.2748 207.752 55.9548C206.972 57.6348 205.862 58.9348 204.422 59.8548C202.982 60.7548 201.302 61.2048 199.382 61.2048C198.222 61.2048 197.042 61.0448 195.842 60.7248C194.642 60.4048 193.602 59.9848 192.722 59.4648L194.732 55.6848ZM200.222 44.0148C199.282 44.0148 198.552 44.2748 198.032 44.7948C197.512 45.2948 197.252 46.0148 197.252 46.9548C197.252 47.8548 197.502 48.5648 198.002 49.0848C198.502 49.5848 199.212 49.8348 200.132 49.8348C201.132 49.8348 201.902 49.5648 202.442 49.0248C203.002 48.4648 203.282 47.7448 203.282 46.8648C203.282 46.0448 203.022 45.3648 202.502 44.8248C201.982 44.2848 201.222 44.0148 200.222 44.0148Z" fill="black"/>
<rect x="12" y="12" width="80" height="80" rx="6" fill="white"/>
<path d="M31.5303 54.3512C31.5303 53.0517 32.5837 51.9983 33.8832 51.9983H69.8832C71.1827 51.9983 72.2362 53.0517 72.2362 54.3512V67.763C72.2362 69.0625 71.1827 70.1159 69.8832 70.1159H51.8832H33.8832C32.5837 70.1159 31.5303 69.0625 31.5303 67.763V54.3512Z" fill="#FEAD77"/>
<path fill-rule="evenodd" clip-rule="evenodd" d="M30.8242 54.3513C30.8242 52.662 32.1937 51.2925 33.883 51.2925H69.883C71.5724 51.2925 72.9419 52.662 72.9419 54.3513V67.7631C72.9419 69.4524 71.5724 70.8219 69.883 70.8219H33.883C32.1937 70.8219 30.8242 69.4524 30.8242 67.7631V54.3513ZM33.883 52.7042C32.9734 52.7042 32.236 53.4417 32.236 54.3513V67.7631C32.236 68.6727 32.9734 69.4101 33.883 69.4101H69.883C70.7927 69.4101 71.5301 68.6727 71.5301 67.7631V54.3513C71.5301 53.4417 70.7927 52.7042 69.883 52.7042H33.883Z" fill="black"/>
<path fill-rule="evenodd" clip-rule="evenodd" d="M31.5303 64.7042L31.7656 64.7042C34.6245 64.7042 36.942 67.0218 36.942 69.8807L36.942 70.116L35.5303 70.116L35.5303 69.8807C35.5303 67.8015 33.8448 66.116 31.7656 66.116L31.5303 66.116L31.5303 64.7042Z" fill="black"/>
<path fill-rule="evenodd" clip-rule="evenodd" d="M72.2949 57.4101L72.0596 57.4101C69.2007 57.4101 66.8832 55.0925 66.8832 52.2336L66.8832 51.9983L68.2949 51.9983L68.2949 52.2336C68.2949 54.3128 69.9804 55.9983 72.0596 55.9983L72.2949 55.9983L72.2949 57.4101Z" fill="black"/>
<path fill-rule="evenodd" clip-rule="evenodd" d="M52.0119 66.9212C55.1957 66.9212 57.7766 64.3402 57.7766 61.1565C57.7766 57.9727 55.1957 55.3917 52.0119 55.3917C48.8282 55.3917 46.2472 57.9727 46.2472 61.1565C46.2472 64.3402 48.8282 66.9212 52.0119 66.9212ZM52.0119 68.3329C55.9754 68.3329 59.1884 65.1199 59.1884 61.1565C59.1884 57.193 55.9754 53.98 52.0119 53.98C48.0485 53.98 44.8354 57.193 44.8354 61.1565C44.8354 65.1199 48.0485 68.3329 52.0119 68.3329Z" fill="black"/>
<path fill-rule="evenodd" clip-rule="evenodd" d="M50.0742 59.8274C50.0742 58.7878 50.917 57.9451 51.9566 57.9451H53.6036C53.9935 57.9451 54.3095 58.2611 54.3095 58.651C54.3095 59.0408 53.9935 59.3568 53.6036 59.3568H51.9566C51.6967 59.3568 51.486 59.5675 51.486 59.8274C51.486 60.0873 51.6967 60.298 51.9566 60.298H52.4272C53.4668 60.298 54.3095 61.1408 54.3095 62.1804C54.3095 63.22 53.4668 64.0627 52.4272 64.0627H50.7801C50.3903 64.0627 50.0742 63.7467 50.0742 63.3568C50.0742 62.967 50.3903 62.651 50.7801 62.651H52.4272C52.6871 62.651 52.8977 62.4403 52.8977 62.1804C52.8977 61.9205 52.6871 61.7098 52.4272 61.7098H51.9566C50.917 61.7098 50.0742 60.867 50.0742 59.8274Z" fill="black"/>
<path fill-rule="evenodd" clip-rule="evenodd" d="M52.1956 57.2373C52.5855 57.2373 52.9015 57.5533 52.9015 57.9432V58.6509H51.4897V57.9432C51.4897 57.5533 51.8058 57.2373 52.1956 57.2373Z" fill="black"/>
<path fill-rule="evenodd" clip-rule="evenodd" d="M52.1956 62.8992C52.5855 62.8992 52.9015 63.2152 52.9015 63.6051V64.3128C52.9015 64.7026 52.5855 65.0187 52.1956 65.0187C51.8058 65.0187 51.4897 64.7026 51.4897 64.3128V63.6051C51.4897 63.2152 51.8058 62.8992 52.1956 62.8992Z" fill="black"/>
<path fill-rule="evenodd" clip-rule="evenodd" d="M42.4949 43.3929C41.9171 41.8054 42.7356 40.0502 44.3231 39.4724L64.8858 31.9882C66.4732 31.4104 68.2285 32.2289 68.8063 33.8163L72.8301 44.8716C73.4079 46.459 72.5894 48.2143 71.0019 48.7921L60.3678 52.6626L59.885 51.336L70.519 47.4655C71.3738 47.1543 71.8146 46.2092 71.5034 45.3544L67.4797 34.2992C67.1686 33.4444 66.2234 33.0037 65.3686 33.3148L44.8059 40.799C43.9511 41.1101 43.5104 42.0553 43.8215 42.9101L47.0847 51.8755L45.7581 52.3583L42.4949 43.3929Z" fill="black"/>
<path fill-rule="evenodd" clip-rule="evenodd" d="M67.9428 36.2589L44.5058 44.7893L44.0229 43.4626L67.46 34.9323L67.9428 36.2589Z" fill="black"/>
<path fill-rule="evenodd" clip-rule="evenodd" d="M68.9087 38.912L45.4716 47.4423L44.9888 46.1157L68.4258 37.5853L68.9087 38.912Z" fill="black"/>
<path fill-rule="evenodd" clip-rule="evenodd" d="M48.2058 49.4519C48.0724 49.0855 48.2613 48.6805 48.6277 48.5471L54.3764 46.4548C54.7427 46.3215 55.1478 46.5103 55.2811 46.8767C55.4144 47.243 55.2256 47.6481 54.8592 47.7814L49.1105 49.8738C48.7442 50.0071 48.3391 49.8182 48.2058 49.4519Z" fill="black"/>
<path fill-rule="evenodd" clip-rule="evenodd" d="M64.7784 43.0443C63.9847 43.3332 63.5754 44.2109 63.8643 45.0046C64.1532 45.7983 65.0308 46.2076 65.8246 45.9187C66.6183 45.6298 67.0276 44.7521 66.7387 43.9584C66.4498 43.1647 65.5721 42.7554 64.7784 43.0443ZM62.5377 45.4874C61.9821 43.961 62.7691 42.2733 64.2955 41.7177C65.8219 41.1621 67.5097 41.9491 68.0653 43.4756C68.6208 45.002 67.8338 46.6897 66.3074 47.2453C64.781 47.8009 63.0932 47.0138 62.5377 45.4874Z" fill="black"/>
</svg>
