<svg width="264" height="104" viewBox="0 0 264 104" fill="none" xmlns="http://www.w3.org/2000/svg">
<rect width="264" height="104" rx="12" fill="#F2F2F2" fill-opacity="0.5"/>
<path d="M100.112 77.2H108.106V78.866H105.054V87H103.164V78.866H100.112V77.2ZM109.364 79.51H111.184V87H109.364V79.51ZM110.26 76.29C110.559 76.29 110.806 76.3927 111.002 76.598C111.198 76.8033 111.296 77.0647 111.296 77.382C111.296 77.69 111.198 77.9467 111.002 78.152C110.806 78.3573 110.559 78.46 110.26 78.46C109.962 78.46 109.714 78.3573 109.518 78.152C109.322 77.9467 109.224 77.69 109.224 77.382C109.224 77.0647 109.322 76.8033 109.518 76.598C109.714 76.3927 109.962 76.29 110.26 76.29ZM118.591 81.876C118.087 81.3253 117.433 81.05 116.631 81.05C116.024 81.05 115.529 81.2553 115.147 81.666C114.773 82.0767 114.587 82.6087 114.587 83.262C114.587 83.934 114.773 84.4753 115.147 84.886C115.529 85.2967 116.024 85.502 116.631 85.502C117.527 85.502 118.199 85.208 118.647 84.62L119.781 85.558C119.445 86.0433 119.001 86.4167 118.451 86.678C117.9 86.9393 117.261 87.07 116.533 87.07C115.795 87.07 115.137 86.9113 114.559 86.594C113.989 86.2767 113.546 85.8333 113.229 85.264C112.911 84.6853 112.753 84.0227 112.753 83.276C112.753 82.52 112.911 81.8527 113.229 81.274C113.555 80.6953 114.003 80.2473 114.573 79.93C115.151 79.6127 115.814 79.454 116.561 79.454C117.242 79.454 117.849 79.5753 118.381 79.818C118.922 80.0513 119.361 80.3873 119.697 80.826L118.591 81.876ZM126.409 87L124.379 83.724L123.231 84.928V87H121.411V76.612H123.231V82.632L126.311 79.524H128.411L125.639 82.408L128.579 87H126.409ZM132.57 79.454C133.765 79.454 134.661 79.7947 135.258 80.476C135.865 81.1573 136.168 82.114 136.168 83.346C136.168 83.5887 136.164 83.7707 136.154 83.892H130.624C130.746 84.424 130.993 84.844 131.366 85.152C131.749 85.4507 132.216 85.6 132.766 85.6C133.149 85.6 133.513 85.53 133.858 85.39C134.213 85.2407 134.521 85.0307 134.782 84.76L135.762 85.782C135.389 86.1927 134.932 86.51 134.39 86.734C133.858 86.958 133.266 87.07 132.612 87.07C131.847 87.07 131.17 86.9113 130.582 86.594C130.004 86.2767 129.556 85.8333 129.238 85.264C128.921 84.6853 128.762 84.0227 128.762 83.276C128.762 82.5293 128.921 81.8667 129.238 81.288C129.565 80.7093 130.018 80.2613 130.596 79.944C131.175 79.6173 131.833 79.454 132.57 79.454ZM134.502 82.674C134.484 82.1233 134.302 81.6847 133.956 81.358C133.611 81.0313 133.154 80.868 132.584 80.868C132.052 80.868 131.604 81.0313 131.24 81.358C130.886 81.6753 130.666 82.114 130.582 82.674H134.502ZM142.116 86.538C141.518 86.902 140.893 87.084 140.24 87.084C139.596 87.084 139.068 86.8973 138.658 86.524C138.247 86.1413 138.042 85.5813 138.042 84.844V81.148H136.992L136.978 79.818H138.042V77.76H139.848V79.818H141.99V81.148H139.848V84.522C139.848 84.8673 139.913 85.1147 140.044 85.264C140.174 85.404 140.37 85.474 140.632 85.474C140.912 85.474 141.266 85.3713 141.696 85.166L142.116 86.538ZM153.178 87L151.484 84.102C151.409 84.1113 151.292 84.116 151.134 84.116H148.922V87H147.046V77.2H151.134C152.403 77.2 153.383 77.494 154.074 78.082C154.764 78.67 155.11 79.5007 155.11 80.574C155.11 81.3393 154.942 81.9927 154.606 82.534C154.279 83.0753 153.798 83.4813 153.164 83.752L155.32 87H153.178ZM148.922 82.464H151.134C151.843 82.464 152.384 82.31 152.758 82.002C153.131 81.694 153.318 81.2367 153.318 80.63C153.318 80.0327 153.131 79.5847 152.758 79.286C152.384 78.9873 151.843 78.838 151.134 78.838H148.922V82.464ZM160.215 79.454C161.41 79.454 162.306 79.7947 162.903 80.476C163.51 81.1573 163.813 82.114 163.813 83.346C163.813 83.5887 163.808 83.7707 163.799 83.892H158.269C158.39 84.424 158.638 84.844 159.011 85.152C159.394 85.4507 159.86 85.6 160.411 85.6C160.794 85.6 161.158 85.53 161.503 85.39C161.858 85.2407 162.166 85.0307 162.427 84.76L163.407 85.782C163.034 86.1927 162.576 86.51 162.035 86.734C161.503 86.958 160.91 87.07 160.257 87.07C159.492 87.07 158.815 86.9113 158.227 86.594C157.648 86.2767 157.2 85.8333 156.883 85.264C156.566 84.6853 156.407 84.0227 156.407 83.276C156.407 82.5293 156.566 81.8667 156.883 81.288C157.21 80.7093 157.662 80.2613 158.241 79.944C158.82 79.6173 159.478 79.454 160.215 79.454ZM162.147 82.674C162.128 82.1233 161.946 81.6847 161.601 81.358C161.256 81.0313 160.798 80.868 160.229 80.868C159.697 80.868 159.249 81.0313 158.885 81.358C158.53 81.6753 158.311 82.114 158.227 82.674H162.147ZM172.602 76.612V87H170.782V85.796C170.511 86.216 170.161 86.538 169.732 86.762C169.312 86.9767 168.822 87.084 168.262 87.084C167.553 87.084 166.927 86.9253 166.386 86.608C165.854 86.2813 165.439 85.8287 165.14 85.25C164.841 84.662 164.692 83.99 164.692 83.234C164.692 82.4873 164.837 81.8293 165.126 81.26C165.425 80.6813 165.84 80.2333 166.372 79.916C166.913 79.5987 167.529 79.44 168.22 79.44C168.789 79.44 169.289 79.552 169.718 79.776C170.147 80 170.502 80.322 170.782 80.742V76.612H172.602ZM168.654 85.558C169.279 85.558 169.788 85.348 170.18 84.928C170.581 84.4987 170.782 83.948 170.782 83.276C170.782 82.604 170.581 82.058 170.18 81.638C169.788 81.2087 169.279 80.994 168.654 80.994C168.029 80.994 167.52 81.2087 167.128 81.638C166.736 82.058 166.535 82.604 166.526 83.276C166.535 83.948 166.736 84.4987 167.128 84.928C167.52 85.348 168.029 85.558 168.654 85.558ZM178.057 79.454C179.251 79.454 180.147 79.7947 180.745 80.476C181.351 81.1573 181.655 82.114 181.655 83.346C181.655 83.5887 181.65 83.7707 181.641 83.892H176.111C176.232 84.424 176.479 84.844 176.853 85.152C177.235 85.4507 177.702 85.6 178.253 85.6C178.635 85.6 178.999 85.53 179.345 85.39C179.699 85.2407 180.007 85.0307 180.269 84.76L181.249 85.782C180.875 86.1927 180.418 86.51 179.877 86.734C179.345 86.958 178.752 87.07 178.099 87.07C177.333 87.07 176.657 86.9113 176.069 86.594C175.49 86.2767 175.042 85.8333 174.725 85.264C174.407 84.6853 174.249 84.0227 174.249 83.276C174.249 82.5293 174.407 81.8667 174.725 81.288C175.051 80.7093 175.504 80.2613 176.083 79.944C176.661 79.6173 177.319 79.454 178.057 79.454ZM179.989 82.674C179.97 82.1233 179.788 81.6847 179.443 81.358C179.097 81.0313 178.64 80.868 178.071 80.868C177.539 80.868 177.091 81.0313 176.727 81.358C176.372 81.6753 176.153 82.114 176.069 82.674H179.989ZM186.342 79.454C187.537 79.454 188.433 79.7947 189.03 80.476C189.637 81.1573 189.94 82.114 189.94 83.346C189.94 83.5887 189.935 83.7707 189.926 83.892H184.396C184.517 84.424 184.765 84.844 185.138 85.152C185.521 85.4507 185.987 85.6 186.538 85.6C186.921 85.6 187.285 85.53 187.63 85.39C187.985 85.2407 188.293 85.0307 188.554 84.76L189.534 85.782C189.161 86.1927 188.703 86.51 188.162 86.734C187.63 86.958 187.037 87.07 186.384 87.07C185.619 87.07 184.942 86.9113 184.354 86.594C183.775 86.2767 183.327 85.8333 183.01 85.264C182.693 84.6853 182.534 84.0227 182.534 83.276C182.534 82.5293 182.693 81.8667 183.01 81.288C183.337 80.7093 183.789 80.2613 184.368 79.944C184.947 79.6173 185.605 79.454 186.342 79.454ZM188.274 82.674C188.255 82.1233 188.073 81.6847 187.728 81.358C187.383 81.0313 186.925 80.868 186.356 80.868C185.824 80.868 185.376 81.0313 185.012 81.358C184.657 81.6753 184.438 82.114 184.354 82.674H188.274ZM201.319 79.44C202.168 79.44 202.836 79.7013 203.321 80.224C203.806 80.7373 204.049 81.4373 204.049 82.324V87H202.215V82.856C202.215 82.324 202.066 81.9087 201.767 81.61C201.478 81.302 201.081 81.148 200.577 81.148C199.998 81.1667 199.536 81.3767 199.191 81.778C198.855 82.1793 198.687 82.688 198.687 83.304V87H196.853V82.856C196.853 82.324 196.708 81.9087 196.419 81.61C196.13 81.302 195.733 81.148 195.229 81.148C194.641 81.1667 194.174 81.3767 193.829 81.778C193.493 82.1793 193.325 82.688 193.325 83.304V87H191.505V79.51H193.325V80.896C193.82 79.944 194.697 79.4587 195.957 79.44C196.61 79.44 197.156 79.5987 197.595 79.916C198.043 80.224 198.356 80.6627 198.533 81.232C199.009 80.056 199.938 79.4587 201.319 79.44ZM209.201 79.454C210.396 79.454 211.292 79.7947 211.889 80.476C212.496 81.1573 212.799 82.114 212.799 83.346C212.799 83.5887 212.795 83.7707 212.785 83.892H207.255C207.377 84.424 207.624 84.844 207.997 85.152C208.38 85.4507 208.847 85.6 209.397 85.6C209.78 85.6 210.144 85.53 210.489 85.39C210.844 85.2407 211.152 85.0307 211.413 84.76L212.393 85.782C212.02 86.1927 211.563 86.51 211.021 86.734C210.489 86.958 209.897 87.07 209.243 87.07C208.478 87.07 207.801 86.9113 207.213 86.594C206.635 86.2767 206.187 85.8333 205.869 85.264C205.552 84.6853 205.393 84.0227 205.393 83.276C205.393 82.5293 205.552 81.8667 205.869 81.288C206.196 80.7093 206.649 80.2613 207.227 79.944C207.806 79.6173 208.464 79.454 209.201 79.454ZM211.133 82.674C211.115 82.1233 210.933 81.6847 210.587 81.358C210.242 81.0313 209.785 80.868 209.215 80.868C208.683 80.868 208.235 81.0313 207.871 81.358C207.517 81.6753 207.297 82.114 207.213 82.674H211.133ZM221.588 76.612V87H219.768V85.796C219.498 86.216 219.148 86.538 218.718 86.762C218.298 86.9767 217.808 87.084 217.248 87.084C216.539 87.084 215.914 86.9253 215.372 86.608C214.84 86.2813 214.425 85.8287 214.126 85.25C213.828 84.662 213.678 83.99 213.678 83.234C213.678 82.4873 213.823 81.8293 214.112 81.26C214.411 80.6813 214.826 80.2333 215.358 79.916C215.9 79.5987 216.516 79.44 217.206 79.44C217.776 79.44 218.275 79.552 218.704 79.776C219.134 80 219.488 80.322 219.768 80.742V76.612H221.588ZM217.64 85.558C218.266 85.558 218.774 85.348 219.166 84.928C219.568 84.4987 219.768 83.948 219.768 83.276C219.768 82.604 219.568 82.058 219.166 81.638C218.774 81.2087 218.266 80.994 217.64 80.994C217.015 80.994 216.506 81.2087 216.114 81.638C215.722 82.058 215.522 82.604 215.512 83.276C215.522 83.948 215.722 84.4987 216.114 84.928C216.506 85.348 217.015 85.558 217.64 85.558Z" fill="black"/>
<path d="M105.76 24.152C105.76 24.528 105.656 24.86 105.448 25.148C105.248 25.436 104.952 25.664 104.56 25.832C104.176 25.992 103.7 26.072 103.132 26.072C102.612 26.072 102.112 25.992 101.632 25.832C101.16 25.672 100.788 25.468 100.516 25.22L100.876 24.548C101.124 24.78 101.452 24.972 101.86 25.124C102.276 25.268 102.708 25.34 103.156 25.34C103.78 25.34 104.224 25.232 104.488 25.016C104.76 24.792 104.896 24.528 104.896 24.224C104.896 23.968 104.82 23.768 104.668 23.624C104.516 23.472 104.316 23.352 104.068 23.264C103.82 23.168 103.548 23.088 103.252 23.024C102.956 22.96 102.66 22.888 102.364 22.808C102.068 22.728 101.792 22.62 101.536 22.484C101.288 22.348 101.088 22.168 100.936 21.944C100.792 21.72 100.72 21.424 100.72 21.056C100.72 20.688 100.82 20.36 101.02 20.072C101.22 19.784 101.512 19.556 101.896 19.388C102.28 19.22 102.752 19.136 103.312 19.136C103.712 19.136 104.104 19.188 104.488 19.292C104.88 19.388 105.216 19.536 105.496 19.736L105.184 20.432C104.896 20.232 104.588 20.092 104.26 20.012C103.932 19.924 103.608 19.88 103.288 19.88C102.696 19.88 102.26 19.992 101.98 20.216C101.708 20.432 101.572 20.7 101.572 21.02C101.572 21.276 101.648 21.48 101.8 21.632C101.952 21.776 102.152 21.896 102.4 21.992C102.648 22.08 102.92 22.156 103.216 22.22C103.52 22.284 103.82 22.356 104.116 22.436C104.412 22.516 104.684 22.624 104.932 22.76C105.18 22.888 105.38 23.064 105.532 23.288C105.684 23.512 105.76 23.8 105.76 24.152ZM108.6 26V19.94H106.212V19.22H111.852V19.94H109.464V26H108.6ZM111.497 26L114.629 19.22H115.481L118.613 26H117.749L114.905 19.688H115.205L112.349 26H111.497ZM112.817 24.248L113.069 23.552H116.933L117.185 24.248H112.817ZM119.905 26V19.22H122.749C123.517 19.22 124.177 19.364 124.729 19.652C125.281 19.932 125.705 20.328 126.001 20.84C126.305 21.344 126.457 21.932 126.457 22.604C126.457 23.284 126.305 23.88 126.001 24.392C125.705 24.896 125.281 25.292 124.729 25.58C124.177 25.86 123.517 26 122.749 26H119.905ZM120.769 25.28H122.713C123.321 25.28 123.841 25.168 124.273 24.944C124.705 24.72 125.033 24.408 125.257 24.008C125.481 23.608 125.593 23.14 125.593 22.604C125.593 22.068 125.481 21.6 125.257 21.2C125.033 20.8 124.705 20.492 124.273 20.276C123.841 20.052 123.321 19.94 122.713 19.94H120.769V25.28ZM128.295 26V19.22H129.159V26H128.295ZM134.49 26.072C133.89 26.072 133.374 25.96 132.942 25.736C132.518 25.504 132.19 25.168 131.958 24.728C131.726 24.288 131.61 23.752 131.61 23.12V19.22H132.474V23.096C132.474 23.84 132.65 24.4 133.002 24.776C133.354 25.144 133.85 25.328 134.49 25.328C135.138 25.328 135.638 25.144 135.99 24.776C136.342 24.4 136.518 23.84 136.518 23.096V19.22H137.358V23.12C137.358 23.752 137.242 24.288 137.01 24.728C136.786 25.168 136.458 25.504 136.026 25.736C135.602 25.96 135.09 26.072 134.49 26.072ZM139.803 26V19.22H140.547L143.607 24.368H143.259L146.295 19.22H147.039V26H146.211V20.54H146.355L143.619 25.148H143.223L140.439 20.54H140.631V26H139.803Z" fill="#333333" fill-opacity="0.5"/>
<path d="M103.15 55.6848C103.75 56.1248 104.42 56.4648 105.16 56.7048C105.9 56.9248 106.67 57.0348 107.47 57.0348C109.07 57.0348 110.28 56.5548 111.1 55.5948C111.92 54.6148 112.31 53.2448 112.27 51.4848C111.21 53.0048 109.58 53.7648 107.38 53.7648C106.04 53.7648 104.87 53.4848 103.87 52.9248C102.87 52.3448 102.09 51.5448 101.53 50.5248C100.99 49.4848 100.72 48.2848 100.72 46.9248C100.72 45.4648 101.04 44.1948 101.68 43.1148C102.32 42.0148 103.22 41.1748 104.38 40.5948C105.54 39.9948 106.89 39.6948 108.43 39.6948C110.27 39.6948 111.86 40.1148 113.2 40.9548C114.54 41.7948 115.57 42.9948 116.29 44.5548C117.01 46.1148 117.37 47.9648 117.37 50.1048C117.37 52.3248 116.97 54.2748 116.17 55.9548C115.39 57.6348 114.28 58.9348 112.84 59.8548C111.4 60.7548 109.72 61.2048 107.8 61.2048C106.64 61.2048 105.46 61.0448 104.26 60.7248C103.06 60.4048 102.02 59.9848 101.14 59.4648L103.15 55.6848ZM108.64 44.0148C107.7 44.0148 106.97 44.2748 106.45 44.7948C105.93 45.2948 105.67 46.0148 105.67 46.9548C105.67 47.8548 105.92 48.5648 106.42 49.0848C106.92 49.5848 107.63 49.8348 108.55 49.8348C109.55 49.8348 110.32 49.5648 110.86 49.0248C111.42 48.4648 111.7 47.7448 111.7 46.8648C111.7 46.0448 111.44 45.3648 110.92 44.8248C110.4 44.2848 109.64 44.0148 108.64 44.0148ZM122.527 47.1048C123.287 47.1048 123.907 47.3448 124.387 47.8248C124.867 48.3048 125.107 48.9248 125.107 49.6848C125.107 50.4448 124.867 51.0748 124.387 51.5748C123.907 52.0548 123.287 52.2948 122.527 52.2948C121.787 52.2948 121.177 52.0548 120.697 51.5748C120.217 51.0748 119.977 50.4448 119.977 49.6848C119.977 48.9248 120.207 48.3048 120.667 47.8248C121.147 47.3448 121.767 47.1048 122.527 47.1048ZM122.527 56.0148C123.287 56.0148 123.907 56.2548 124.387 56.7348C124.867 57.2148 125.107 57.8348 125.107 58.5948C125.107 59.3548 124.867 59.9848 124.387 60.4848C123.907 60.9648 123.287 61.2048 122.527 61.2048C121.787 61.2048 121.177 60.9648 120.697 60.4848C120.217 59.9848 119.977 59.3548 119.977 58.5948C119.977 57.8348 120.207 57.2148 120.667 56.7348C121.147 56.2548 121.767 56.0148 122.527 56.0148ZM125.771 39.9348H135.311V60.9648H129.821V44.4348H125.771V39.9348ZM155.51 56.5548V60.9648H139.49L139.46 57.3348L147.11 49.4748C147.71 48.8548 148.2 48.2348 148.58 47.6148C148.96 46.9948 149.15 46.4648 149.15 46.0248C149.15 45.4448 148.94 45.0048 148.52 44.7048C148.1 44.3848 147.51 44.2248 146.75 44.2248C145.91 44.2248 144.97 44.4648 143.93 44.9448C142.91 45.4048 141.92 46.0548 140.96 46.8948L138.86 42.8448C141.76 40.7448 144.67 39.6948 147.59 39.6948C148.99 39.6948 150.24 39.9248 151.34 40.3848C152.46 40.8448 153.33 41.4948 153.95 42.3348C154.59 43.1748 154.91 44.1348 154.91 45.2148C154.91 46.2948 154.55 47.4148 153.83 48.5748C153.13 49.7148 152.13 50.9348 150.83 52.2348L146.54 56.5548H155.51ZM174.444 39.9348C177.124 39.9348 179.204 40.5848 180.684 41.8848C182.164 43.1648 182.904 44.9748 182.904 47.3148C182.904 49.7948 182.164 51.7248 180.684 53.1048C179.204 54.4648 177.124 55.1448 174.444 55.1448H170.694V60.9648H165.204V39.9348H174.444ZM174.174 50.7648C175.294 50.7648 176.154 50.4848 176.754 49.9248C177.374 49.3648 177.684 48.5548 177.684 47.4948C177.684 46.4748 177.374 45.6948 176.754 45.1548C176.154 44.5948 175.294 44.3148 174.174 44.3148H170.694V50.7648H174.174ZM185.595 39.9348H191.565L197.655 52.2348L203.715 39.9348H209.685V60.9648H204.825L204.795 47.6448L199.425 58.8648H195.885L190.485 47.6448V60.9648H185.595V39.9348Z" fill="black"/>
<rect x="12" y="12" width="80" height="80" rx="6" fill="white"/>
<path d="M34.891 57.8189C35.9038 57.2341 36.2508 55.939 35.6661 54.9261L35.5529 54.7301L59.9123 40.6662L60.0255 40.8622C60.6103 41.8751 61.9054 42.2221 62.9183 41.6373L63.1143 41.5241L68.9742 51.6739L68.7782 51.7871C67.7654 52.3718 67.4183 53.667 68.0031 54.6798L68.1163 54.8758L43.7569 68.9398L43.6437 68.7438C43.0589 67.7309 41.7638 67.3839 40.7509 67.9686L40.5549 68.0818L34.6949 57.9321L34.891 57.8189Z" fill="#7AE1BF"/>
<path fill-rule="evenodd" clip-rule="evenodd" d="M33.4721 58.6381C33.0823 57.9628 33.3136 57.0994 33.9889 56.7096L34.1849 56.5964C34.5225 56.4015 34.6382 55.9698 34.4432 55.6321L34.3301 55.4361C33.9402 54.7609 34.1716 53.8975 34.8468 53.5076L59.2062 39.4437C59.8815 39.0538 60.7449 39.2852 61.1348 39.9604L61.2479 40.1565C61.4428 40.4941 61.8746 40.6097 62.2122 40.4148L62.4082 40.3017C63.0834 39.9118 63.9469 40.1432 64.3367 40.8184L70.1967 50.9682C70.5865 51.6434 70.3552 52.5068 69.6799 52.8967L69.4839 53.0098C69.1463 53.2048 69.0306 53.6365 69.2255 53.9741L69.3387 54.1701C69.7286 54.8453 69.4972 55.7088 68.822 56.0986L44.4625 70.1625C43.7873 70.5524 42.9239 70.321 42.534 69.6458L42.4209 69.4498C42.2259 69.1122 41.7942 68.9965 41.4566 69.1914L41.2606 69.3046C40.5854 69.6944 39.7219 69.4631 39.3321 68.7878L33.4721 58.6381ZM35.6659 54.9263L35.5527 54.7302L59.9121 40.6663L60.0253 40.8623C60.6101 41.8752 61.9052 42.2222 62.9181 41.6374L63.1141 41.5243L68.974 51.674L68.778 51.7872C67.7652 52.372 67.4181 53.6671 68.0029 54.68L68.1161 54.876L43.7567 68.9399L43.6435 68.7439C43.0587 67.731 41.7636 67.384 40.7507 67.9688L40.5547 68.082L34.6947 57.9322L34.8908 57.819C35.9036 57.2343 36.2506 55.9391 35.6659 54.9263Z" fill="black"/>
<path fill-rule="evenodd" clip-rule="evenodd" d="M49.6508 52.5869C49.4559 52.2493 49.5715 51.8176 49.9092 51.6226L57.353 47.3249C57.6906 47.13 58.1224 47.2457 58.3173 47.5833C58.5122 47.9209 58.3965 48.3526 58.0589 48.5476L50.615 52.8453C50.2774 53.0402 49.8457 52.9245 49.6508 52.5869Z" fill="black"/>
<path fill-rule="evenodd" clip-rule="evenodd" d="M51.2704 55.3921C51.0755 55.0545 51.1912 54.6227 51.5288 54.4278L57.0308 51.2512C57.3684 51.0563 57.8001 51.172 57.995 51.5096C58.19 51.8472 58.0743 52.2789 57.7367 52.4739L52.2347 55.6504C51.8971 55.8454 51.4653 55.7297 51.2704 55.3921Z" fill="black"/>
<path fill-rule="evenodd" clip-rule="evenodd" d="M52.8896 58.1968C52.6946 57.8591 52.8103 57.4274 53.1479 57.2325L61.2391 52.5611C61.5767 52.3662 62.0084 52.4818 62.2033 52.8194C62.3983 53.1571 62.2826 53.5888 61.945 53.7837L53.8538 58.4551C53.5162 58.6501 53.0845 58.5344 52.8896 58.1968Z" fill="black"/>
<path fill-rule="evenodd" clip-rule="evenodd" d="M40.0659 51.703C40.4035 51.508 40.8352 51.6237 41.0302 51.9613L41.6945 53.1121C41.8895 53.4497 41.7738 53.8814 41.4362 54.0763C41.0985 54.2713 40.6668 54.1556 40.4719 53.818L39.8075 52.6672C39.6126 52.3296 39.7283 51.8979 40.0659 51.703ZM42.059 55.1552C42.3967 54.9603 42.8284 55.0759 43.0233 55.4136L44.3521 57.715C44.547 58.0527 44.4313 58.4844 44.0937 58.6793C43.7561 58.8742 43.3244 58.7585 43.1294 58.4209L41.8007 56.1194C41.6058 55.7818 41.7214 55.3501 42.059 55.1552ZM44.7166 59.7582C45.0542 59.5632 45.4859 59.6789 45.6808 60.0165L47.0096 62.318C47.2045 62.6556 47.0888 63.0873 46.7512 63.2823C46.4136 63.4772 45.9819 63.3615 45.787 63.0239L44.4582 60.7224C44.2633 60.3848 44.379 59.9531 44.7166 59.7582ZM47.3741 64.3611C47.7117 64.1662 48.1434 64.2819 48.3383 64.6195L49.0027 65.7702C49.1977 66.1079 49.082 66.5396 48.7444 66.7345C48.4067 66.9294 47.975 66.8137 47.7801 66.4761L47.1157 65.3254C46.9208 64.9878 47.0365 64.5561 47.3741 64.3611Z" fill="black"/>
<path fill-rule="evenodd" clip-rule="evenodd" d="M55.0046 32.4229L37.352 53.4604L36.2705 52.553L54.3507 31.0058C54.6013 30.7072 55.0466 30.6682 55.3452 30.9188L55.5186 31.0643C56.1159 31.5655 57.0064 31.4876 57.5075 30.8903L57.653 30.7169C57.9036 30.4182 58.3489 30.3793 58.6475 30.6299L67.6255 38.1633C67.9241 38.4139 67.9631 38.8591 67.7125 39.1578L67.567 39.3312C67.0658 39.9284 67.1437 40.8189 67.741 41.3201L67.9144 41.4656C68.213 41.7162 68.252 42.1614 68.0014 42.4601L66.033 44.8059L64.9515 43.8985L66.4923 42.0623C65.7213 41.1529 65.607 39.8466 66.2084 38.8171L58.2497 32.139C57.3403 32.91 56.034 33.0243 55.0046 32.4229Z" fill="black"/>
<path fill-rule="evenodd" clip-rule="evenodd" d="M49.3259 46.1708C49.0273 45.9202 48.9883 45.4749 49.2389 45.1763L54.7639 38.5918C55.0145 38.2932 55.4598 38.2542 55.7584 38.5048C56.057 38.7554 56.096 39.2006 55.8454 39.4993L50.3204 46.0838C50.0698 46.3824 49.6245 46.4214 49.3259 46.1708Z" fill="black"/>
</svg>
